<svg width="160" height="160" viewBox="0 0 160 160" fill="none" xmlns="http://www.w3.org/2000/svg">
<path d="M145.01 65.0105C153.289 100.915 130.894 136.732 94.9896 145.011C59.0853 153.289 23.2681 130.894 14.9896 94.9897C6.71106 59.0854 29.1062 23.2682 65.0104 14.9897C100.915 6.71118 136.732 29.1063 145.01 65.0105Z" fill="#E3FE0F"/>
<path d="M130.718 81.4673L139.895 83.1467L139.502 85.2944L129.786 88.2517L129.731 88.5511L130.53 88.5224L138.639 90.0065L138.447 91.0609L129.27 89.3815L129.663 87.2337L139.376 84.2894L139.431 83.99L138.632 84.0187L130.523 82.5347L130.718 81.4673Z" fill="#17161E"/>
<path d="M132.469 92.0152C133.45 92.3624 134.122 92.9091 134.485 93.6551C134.845 94.4095 134.867 95.2358 134.549 96.134C134.237 97.0156 133.722 97.6242 133.004 97.9598C132.287 98.2955 131.454 98.2956 130.506 97.9601L130.107 97.8189L131.841 92.9162C131.181 92.7199 130.586 92.7202 130.058 92.917C129.535 93.1251 129.147 93.5867 128.894 94.302C128.712 94.8176 128.683 95.2844 128.806 95.7024C128.938 96.1234 129.222 96.4718 129.657 96.7476L129.296 97.7706C129.045 97.6069 128.822 97.4159 128.628 97.1975C128.431 96.9874 128.252 96.7275 128.09 96.4176C127.925 96.116 127.834 95.7516 127.817 95.3244C127.805 94.9084 127.881 94.4676 128.046 94.0018C128.417 92.9539 129.004 92.2727 129.808 91.9582C130.617 91.6549 131.504 91.6739 132.469 92.0152ZM132.615 93.1898L131.233 97.0945C131.749 97.277 132.232 97.2607 132.682 97.0457C133.141 96.8337 133.476 96.4283 133.688 95.8294C133.9 95.2306 133.901 94.6838 133.693 94.1889C133.481 93.7023 133.122 93.3693 132.615 93.1898Z" fill="#17161E"/>
<path d="M133.276 101.237L132.745 102.122L126.55 100.255L126.386 100.528L131.083 104.89L129.932 106.808L123.866 104.726L123.709 104.986L128.263 109.588L127.739 110.461L122.958 105.647L124.096 103.752L130.15 105.827L130.313 105.555L125.635 101.188L126.779 99.2817L133.276 101.237Z" fill="#17161E"/>
<path d="M119.266 112.249L117.831 114.072L117.14 113.454L118.701 111.512C118.893 111.27 119.096 111.143 119.307 111.131C119.52 111.132 119.741 111.235 119.971 111.441L123.61 114.697L124.581 113.612L125.271 114.23L124.3 115.315L125.563 116.444L125.095 117.464L123.586 116.114L122.218 117.642L121.528 117.025L122.895 115.496L119.266 112.249Z" fill="#17161E"/>
<path d="M118.887 116.997C119.556 117.795 119.857 118.607 119.79 119.434C119.717 120.267 119.315 120.989 118.585 121.601C117.868 122.202 117.115 122.464 116.326 122.388C115.538 122.313 114.821 121.889 114.175 121.118L113.903 120.794L117.889 117.454C117.42 116.949 116.908 116.647 116.353 116.548C115.797 116.461 115.228 116.662 114.647 117.149C114.228 117.5 113.965 117.887 113.859 118.31C113.758 118.74 113.826 119.184 114.061 119.643L113.229 120.34C113.096 120.071 113.001 119.794 112.945 119.507C112.883 119.226 112.86 118.911 112.878 118.562C112.89 118.218 112.997 117.858 113.199 117.482C113.4 117.117 113.69 116.777 114.069 116.459C114.921 115.745 115.773 115.457 116.625 115.595C117.476 115.745 118.23 116.213 118.887 116.997ZM118.416 118.083L115.241 120.743C115.592 121.162 116.017 121.394 116.514 121.437C117.016 121.488 117.511 121.309 117.998 120.901C118.485 120.493 118.764 120.023 118.836 119.491C118.902 118.965 118.761 118.495 118.416 118.083Z" fill="#17161E"/>
<path d="M112.802 122.337C113.312 123.173 113.479 124.022 113.303 124.884C113.123 125.759 112.593 126.465 111.712 127.002C111.32 127.241 110.9 127.4 110.451 127.477C110.007 127.562 109.53 127.517 109.02 127.343C108.515 127.176 108.084 126.85 107.726 126.365L108.664 125.793C109.395 126.67 110.25 126.809 111.229 126.212C111.862 125.826 112.222 125.332 112.31 124.731C112.397 124.129 112.253 123.52 111.876 122.902C111.499 122.285 111.021 121.874 110.441 121.67C109.866 121.473 109.263 121.567 108.63 121.953C107.651 122.551 107.384 123.375 107.83 124.426L106.892 124.998C106.625 124.459 106.53 123.922 106.608 123.389C106.69 122.864 106.868 122.419 107.142 122.055C107.421 121.699 107.756 121.402 108.148 121.163C109.029 120.625 109.897 120.472 110.752 120.705C111.604 120.95 112.287 121.494 112.802 122.337Z" fill="#17161E"/>
<path d="M103.64 131.475C102.932 131.771 102.292 131.795 101.719 131.547C101.147 131.298 100.689 130.763 100.345 129.941L98.7937 126.229L99.7826 125.816L101.278 129.393C101.54 130.02 101.853 130.415 102.218 130.578C102.578 130.753 103.022 130.729 103.551 130.508C104.203 130.236 104.631 129.775 104.837 129.124C105.035 128.477 104.966 127.751 104.629 126.945L103.506 124.259L104.508 123.841L108.259 132.814L107.258 133.233L105.604 129.277L105.472 128.515L105.191 128.632C105.299 129.256 105.227 129.817 104.976 130.314C104.72 130.823 104.275 131.21 103.64 131.475Z" fill="#17161E"/>
<path d="M95.6484 133.456C96.3329 133.284 96.8257 132.892 97.1268 132.28C97.4194 131.67 97.4594 130.941 97.2468 130.094L96.5381 127.27L97.5905 127.006L99.1916 133.385L98.1391 133.649L97.8621 132.545L97.8453 131.772L97.5501 131.846C97.5635 132.479 97.4089 133.023 97.0862 133.477C96.7572 133.942 96.2589 134.258 95.5915 134.425C94.8471 134.612 94.2105 134.54 93.6817 134.209C93.1529 133.878 92.78 133.28 92.5631 132.416L91.5838 128.514L92.6234 128.253L93.5673 132.014C93.7327 132.672 93.9834 133.11 94.3195 133.325C94.6493 133.552 95.0922 133.595 95.6484 133.456Z" fill="#17161E"/>
<path d="M90.6687 132.454C90.7502 133.421 90.4975 134.256 89.9106 134.961C89.3237 135.666 88.516 136.061 87.4875 136.148C86.4677 136.234 85.614 135.978 84.9262 135.381C84.2297 134.785 83.8406 134.003 83.7591 133.036C83.6769 132.06 83.9292 131.22 84.5161 130.515C85.0942 129.812 85.8931 129.417 86.9128 129.331C87.9413 129.244 88.8039 129.499 89.5004 130.095C90.197 130.692 90.5864 131.478 90.6687 132.454ZM89.5874 132.545C89.5266 131.824 89.2653 131.244 88.8033 130.805C88.3421 130.374 87.7378 130.191 86.9906 130.254C86.2434 130.317 85.6832 130.603 85.3101 131.112C84.9281 131.623 84.7672 132.234 84.8272 132.946C84.8872 133.658 85.1478 134.229 85.6091 134.66C86.0623 135.099 86.6625 135.288 87.4097 135.225C88.1569 135.162 88.7215 134.875 89.1034 134.365C89.4861 133.864 89.6474 133.257 89.5874 132.545Z" fill="#17161E"/>
<path d="M82.3001 129.996L82.2649 130.922L80.4136 130.851L80.1098 138.838L81.4763 138.771L81.4411 139.697L79.9022 139.771C79.6014 139.786 79.3791 139.711 79.2353 139.547C79.0915 139.382 79.0256 139.141 79.0377 138.824L79.3425 130.811L77.5045 130.741L77.5397 129.815L82.3001 129.996Z" fill="#17161E"/>
<path d="M76.148 133.393C75.9662 134.347 75.4978 135.083 74.7429 135.604C73.988 136.125 73.1036 136.288 72.0897 136.095C71.0845 135.903 70.3311 135.427 69.8294 134.667C69.3191 133.905 69.1549 133.047 69.3367 132.094C69.5201 131.132 69.9893 130.391 70.7442 129.87C71.4905 129.348 72.3662 129.183 73.3714 129.375C74.3853 129.568 75.1474 130.046 75.6577 130.808C76.168 131.569 76.3314 132.431 76.148 133.393ZM75.0821 133.19C75.2176 132.479 75.122 131.85 74.7953 131.303C74.467 130.765 73.9345 130.425 73.1979 130.285C72.4613 130.144 71.8447 130.269 71.3482 130.659C70.843 131.048 70.5234 131.593 70.3896 132.295C70.2557 132.997 70.3529 133.617 70.6813 134.156C70.9994 134.701 71.5267 135.045 72.2633 135.185C72.9998 135.326 73.6207 135.201 74.126 134.813C74.6295 134.433 74.9482 133.892 75.0821 133.19Z" fill="#17161E"/>
<path d="M59.7609 132.709L59.2142 132.509L59.5327 131.639L60.0546 131.83C60.3694 131.945 60.669 131.961 60.9533 131.877C60.7991 131.426 60.8175 130.94 61.0087 130.418C61.2423 129.78 61.6869 129.323 62.3425 129.046C62.9868 128.775 63.8587 128.638 64.9584 128.637C64.4371 128.521 63.9739 128.375 63.5688 128.199C63.1524 128.028 62.8515 127.772 62.6661 127.431C62.4724 127.088 62.4545 126.701 62.6122 126.27C62.7123 125.997 62.8444 125.777 63.0083 125.612C63.1722 125.446 63.3903 125.338 63.6625 125.288C63.9295 125.226 64.2189 125.205 64.5309 125.225C64.8429 125.246 65.2426 125.322 65.73 125.453C66.2203 125.576 66.7212 125.722 67.2326 125.891C67.744 126.059 68.3725 126.28 69.118 126.553L68.7995 127.423C66.8942 126.725 65.5957 126.32 64.904 126.208C64.2041 126.092 63.7707 126.262 63.6039 126.718C63.2307 127.737 64.6169 128.338 67.7625 128.523L67.7143 129.308C66.584 129.214 65.5018 129.142 64.4678 129.092L64.3632 129.378C65.504 129.495 66.3696 129.863 66.9598 130.484C67.5501 131.104 67.6768 131.873 67.3401 132.793C67.0397 133.613 66.5181 134.127 65.7752 134.334C65.0324 134.541 64.1929 134.473 63.2568 134.13C62.4201 133.824 61.7929 133.369 61.3753 132.765C60.9877 132.848 60.6963 132.887 60.5011 132.881C60.2976 132.873 60.0509 132.815 59.7609 132.709ZM64.7779 129.938C63.3448 129.413 62.425 129.706 62.0185 130.816C61.615 131.918 62.1298 132.731 63.5629 133.256C65.0043 133.784 65.9268 133.497 66.3303 132.395C66.7368 131.285 66.2193 130.466 64.7779 129.938Z" fill="#17161E"/>
<path d="M55.5015 132.06C55.7451 132.184 55.9094 132.367 55.9943 132.608C56.0713 132.846 56.0497 133.082 55.9295 133.318C55.8133 133.546 55.6365 133.698 55.3992 133.775C55.154 133.848 54.9095 133.823 54.6659 133.699C54.4301 133.578 54.2698 133.398 54.1849 133.156C54.1 132.915 54.1157 132.68 54.2319 132.452C54.3521 132.217 54.5348 132.062 54.78 131.989C55.0252 131.916 55.2657 131.94 55.5015 132.06ZM60.9209 126.267L60.5001 127.093L58.8496 126.251L56.6495 130.566L57.9179 131.079L57.4971 131.904L56.0813 131.331C55.5464 131.117 55.4112 130.751 55.6757 130.233L57.9419 125.788L56.2915 124.947L56.7123 124.121L60.9209 126.267Z" fill="#17161E"/>
<path d="M53.9945 126.849C53.3954 127.701 52.6876 128.2 51.8713 128.349C51.0477 128.492 50.2464 128.289 49.4672 127.741C48.7025 127.203 48.2554 126.543 48.1259 125.761C47.9964 124.979 48.221 124.177 48.7999 123.355L49.0436 123.009L53.2964 126.002C53.6636 125.419 53.8237 124.847 53.7767 124.285C53.7174 123.725 53.3776 123.227 52.7572 122.791C52.3099 122.476 51.8683 122.321 51.4325 122.328C50.9916 122.341 50.5796 122.52 50.1963 122.865L49.309 122.241C49.5343 122.043 49.7783 121.881 50.0409 121.753C50.2964 121.62 50.5951 121.517 50.9372 121.445C51.272 121.368 51.6474 121.378 52.0635 121.477C52.4672 121.578 52.8711 121.77 53.2751 122.055C54.1841 122.695 54.6815 123.444 54.7675 124.303C54.8412 125.164 54.5835 126.012 53.9945 126.849ZM52.8242 126.673L49.4371 124.289C49.1223 124.736 49.0076 125.206 49.0931 125.697C49.1734 126.196 49.4733 126.628 49.9928 126.994C50.5122 127.36 51.0383 127.509 51.5711 127.442C52.0967 127.369 52.5144 127.113 52.8242 126.673Z" fill="#17161E"/>
<path d="M44.3878 117.414C44.7555 117.009 45.2052 116.815 45.7369 116.833C46.2627 116.858 46.8652 117.179 47.5445 117.795C49.0271 119.142 49.1961 120.445 48.0515 121.705L47.2482 120.976C47.9954 120.153 47.8922 119.309 46.9387 118.443C46.5533 118.093 46.225 117.89 45.9538 117.835C45.6826 117.779 45.4373 117.872 45.2178 118.114C45.1348 118.205 45.0734 118.292 45.0337 118.375C44.9881 118.465 44.9712 118.569 44.9832 118.687C44.9886 118.799 44.9964 118.896 45.0065 118.976C45.0166 119.057 45.0627 119.17 45.1447 119.316C45.2142 119.463 45.2694 119.573 45.3104 119.645C45.3449 119.713 45.423 119.843 45.5448 120.037C45.66 120.225 45.7348 120.353 45.7693 120.42C45.9671 120.766 46.118 121.046 46.222 121.26C46.3194 121.467 46.4059 121.707 46.4815 121.978C46.551 122.256 46.5539 122.508 46.4899 122.736C46.426 122.964 46.2991 123.183 46.1093 123.392C45.7535 123.784 45.315 123.951 44.794 123.895C44.267 123.846 43.7259 123.569 43.1708 123.065C42.4719 122.43 42.1113 121.817 42.089 121.225C42.0602 120.627 42.2563 120.096 42.6774 119.632L43.4807 120.361C42.8877 121.014 42.983 121.697 43.7668 122.409C44.4134 122.996 44.9175 123.09 45.2793 122.692C45.4809 122.47 45.5538 122.232 45.4978 121.978C45.4419 121.725 45.2607 121.334 44.9542 120.806C44.9132 120.733 44.8413 120.602 44.7385 120.413C44.6233 120.225 44.5449 120.088 44.5033 120.003C44.4558 119.924 44.3904 119.799 44.3072 119.628C44.2181 119.464 44.162 119.335 44.1388 119.243C44.1031 119.151 44.063 119.031 44.0184 118.883C43.9672 118.73 43.9485 118.599 43.9621 118.493C43.9691 118.38 43.9851 118.257 44.0099 118.125C44.0288 117.999 44.073 117.878 44.1423 117.763C44.2052 117.641 44.287 117.525 44.3878 117.414Z" fill="#17161E"/>
<path d="M35.4786 110.715L32.4589 105.172L33.2375 104.748L36.2572 110.291L35.4786 110.715Z" fill="#17161E"/>
<path d="M31.04 103.089L28.9674 97.1264L29.8049 96.8353L31.8774 102.797L31.04 103.089Z" fill="#17161E"/>
<path d="M27.8915 94.7765L26.8074 88.5582L27.6809 88.4059L28.7649 94.6242L27.8915 94.7765Z" fill="#17161E"/>
<path d="M29.3197 77.4864L20.1622 75.7045L20.5793 73.5613L30.3277 70.7128L30.3858 70.4141L29.5866 70.4338L21.4942 68.8591L21.699 67.807L30.8565 69.5889L30.4394 71.7322L20.6935 74.5676L20.6354 74.8664L21.4346 74.8466L29.527 76.4213L29.3197 77.4864Z" fill="#17161E"/>
<path d="M27.7258 66.6851C26.7496 66.3235 26.0855 65.7671 25.7335 65.0158C25.3845 64.2562 25.3755 63.4297 25.7064 62.5363C26.0312 61.6594 26.5548 61.0584 27.2773 60.7333C27.9998 60.4082 28.8326 60.4203 29.7757 60.7696L30.1728 60.9167L28.3665 65.7935C29.024 65.9994 29.6183 66.0078 30.1493 65.8188C30.6751 65.6184 31.0697 65.1625 31.3332 64.451C31.5232 63.9381 31.5595 63.4718 31.4422 63.052C31.3166 62.6292 31.0379 62.2767 30.6062 61.9945L30.9831 60.9769C31.2316 61.1442 31.4513 61.3385 31.6421 61.5597C31.8361 61.7727 32.0116 62.0352 32.1688 62.3475C32.3291 62.6514 32.4147 63.0171 32.4257 63.4445C32.4315 63.8606 32.3487 64.3003 32.1771 64.7636C31.791 65.8059 31.1938 66.4785 30.3855 66.7812C29.572 67.0726 28.6855 67.0405 27.7258 66.6851ZM27.5971 65.5085L29.0357 61.6245C28.5228 61.4345 28.0396 61.4437 27.5862 61.652C27.1244 61.8573 26.7832 62.2578 26.5626 62.8534C26.342 63.449 26.3323 63.9958 26.5336 64.4937C26.738 64.9833 27.0925 65.3216 27.5971 65.5085Z" fill="#17161E"/>
<path d="M26.958 57.631L27.4988 56.7519L33.6733 58.686L33.8397 58.4156L29.1907 54.0018L30.3625 52.097L36.4052 54.2453L36.5647 53.9861L32.0613 49.3357L32.5952 48.4678L37.3232 53.3341L36.1652 55.2163L30.1338 53.075L29.9674 53.3455L34.5982 57.7635L33.4333 59.657L26.958 57.631Z" fill="#17161E"/>
<path d="M41.0214 46.8173L42.477 45.0103L43.1605 45.6355L41.579 47.5605C41.3837 47.8002 41.18 47.9248 40.9681 47.9343C40.7557 47.9312 40.5356 47.8255 40.3077 47.6171L36.7047 44.3214L35.7223 45.3955L35.0388 44.7703L36.0212 43.6962L34.7714 42.553L35.2507 41.5388L36.7447 42.9053L38.129 41.3919L38.8125 42.0171L37.4282 43.5305L41.0214 46.8173Z" fill="#17161E"/>
<path d="M41.4834 42.0156C40.8238 41.2102 40.5319 40.3945 40.6078 39.5683C40.6905 38.7365 41.1003 38.0187 41.8374 37.4149C42.5608 36.8224 43.3164 36.5684 44.1041 36.653C44.8918 36.7376 45.6043 37.1688 46.2416 37.9469L46.51 38.2744L42.4869 41.5699C42.9502 42.0799 43.4587 42.3875 44.0125 42.4927C44.5675 42.5855 45.1384 42.3915 45.7253 41.9107C46.1484 41.5641 46.4154 41.18 46.5263 40.7585C46.6316 40.3302 46.5693 39.8851 46.3393 39.4235L47.1788 38.7359C47.3086 39.0058 47.4 39.2844 47.453 39.5718C47.5127 39.8536 47.5315 40.1689 47.5094 40.5177C47.4941 40.861 47.3832 41.2198 47.1767 41.5942C46.9714 41.9562 46.6777 42.2938 46.2955 42.6068C45.4356 43.3112 44.5804 43.5898 43.73 43.4425C42.8808 43.2829 42.1319 42.8072 41.4834 42.0156ZM41.967 40.9352L45.1711 38.3106C44.8245 37.8875 44.4029 37.6512 43.9063 37.6018C43.4041 37.5456 42.9074 37.7188 42.416 38.1213C41.9246 38.5238 41.64 38.9907 41.5621 39.5221C41.491 40.0479 41.626 40.5189 41.967 40.9352Z" fill="#17161E"/>
<path d="M47.4261 36.842C46.9255 36.0004 46.7683 35.1495 46.9546 34.2893C47.144 33.4171 47.6822 32.7171 48.5693 32.1894C48.9636 31.9548 49.3855 31.8013 49.8351 31.7289C50.2802 31.6489 50.7566 31.6991 51.2643 31.8795C51.7675 32.0524 52.1952 32.3831 52.5474 32.8716L51.6034 33.4331C50.882 32.5483 50.0285 32.3991 49.0429 32.9855C48.406 33.3643 48.0403 33.8539 47.9458 34.4542C47.8512 35.0545 47.9889 35.6655 48.3587 36.2872C48.7286 36.9089 49.2021 37.3252 49.7792 37.5362C50.3519 37.7396 50.9566 37.6518 51.5935 37.273C52.5791 36.6866 52.8553 35.8654 52.422 34.8092L53.366 34.2477C53.6272 34.7903 53.716 35.3277 53.6322 35.86C53.544 36.3846 53.3608 36.8272 53.0826 37.1878C52.7998 37.5408 52.4613 37.8345 52.0671 38.0691C51.18 38.5968 50.3103 38.7395 49.4579 38.4972C48.6086 38.2429 47.9313 37.6911 47.4261 36.842Z" fill="#17161E"/>
<path d="M56.7045 27.7461C57.4159 27.4583 58.0564 27.4418 58.6259 27.6968C59.1954 27.9517 59.6472 28.4922 59.9814 29.3181L61.4902 33.0473L60.4966 33.4493L59.0424 29.8551C58.7876 29.2254 58.4788 28.8269 58.1161 28.6596C57.7583 28.4808 57.3136 28.4989 56.782 28.714C56.1278 28.9787 55.6938 29.435 55.4801 30.083C55.2746 30.7276 55.3357 31.4547 55.6632 32.2644L56.7552 34.9631L55.7493 35.3701L52.1013 26.3539L53.1072 25.9469L54.7153 29.9214L54.8387 30.6851L55.1208 30.571C55.0201 29.9456 55.0981 29.3858 55.355 28.8917C55.6168 28.3861 56.0666 28.0042 56.7045 27.7461Z" fill="#17161E"/>
<path d="M64.7479 25.8005C64.0614 25.9643 63.5641 26.3506 63.2559 26.9593C62.9563 27.566 62.9079 28.294 63.1107 29.1435L63.7867 31.9752L62.7312 32.2272L61.2041 25.8301L62.2596 25.5782L62.5238 26.6851L62.5316 27.4587L62.8277 27.3881C62.8216 26.7546 62.9825 26.2128 63.3104 25.7627C63.6448 25.3019 64.1467 24.9917 64.816 24.8319C65.5625 24.6537 66.1982 24.7332 66.7232 25.0704C67.2481 25.4077 67.614 26.0097 67.8209 26.8763L68.755 30.7892L67.7124 31.0381L66.8121 27.2668C66.6544 26.6061 66.4087 26.1659 66.0751 25.9462C65.7481 25.7159 65.3057 25.6673 64.7479 25.8005Z" fill="#17161E"/>
<path d="M69.7559 26.812C69.6855 25.8441 69.9478 25.0113 70.5427 24.3135C71.1377 23.6156 71.9499 23.2293 72.9793 23.1544C74 23.0802 74.8507 23.3456 75.5316 23.9507C76.2213 24.5551 76.6013 25.3412 76.6717 26.3091C76.7427 27.2857 76.4807 28.123 75.8858 28.8208C75.2996 29.5179 74.4962 29.9036 73.4755 29.9779C72.4461 30.0527 71.5865 29.788 70.8969 29.1836C70.2072 28.5792 69.8269 27.7886 69.7559 26.812ZM70.8381 26.7333C70.8906 27.4548 71.1453 28.0377 71.6021 28.4821C72.0584 28.9178 72.6605 29.1084 73.4084 29.054C74.1562 28.9996 74.7197 28.7198 75.0987 28.2146C75.4865 27.7088 75.6545 27.0995 75.6026 26.3868C75.5508 25.6741 75.2968 25.0999 74.8405 24.6643C74.3924 24.2193 73.7944 24.0239 73.0465 24.0783C72.2986 24.1327 71.7308 24.4128 71.343 24.9187C70.9546 25.4157 70.7863 26.0206 70.8381 26.7333Z" fill="#17161E"/>
<path d="M78.1746 29.3429L78.2203 28.4177L80.0706 28.5092L80.4653 20.5262L79.0981 20.5778L79.1439 19.6527L80.6835 19.5963C80.9844 19.5847 81.2058 19.6619 81.3478 19.8279C81.4897 19.9939 81.5529 20.2355 81.5372 20.5527L81.1412 28.5621L82.9784 28.6529L82.9326 29.5781L78.1746 29.3429Z" fill="#17161E"/>
<path d="M84.2178 25.9661C84.4102 25.0149 84.8868 24.2833 85.6474 23.7711C86.4081 23.259 87.2943 23.1053 88.306 23.3099C89.309 23.5129 90.057 23.9973 90.5502 24.7631C91.0519 25.5307 91.2065 26.39 91.0141 27.3412C90.8199 28.301 90.3425 29.0369 89.5818 29.5491C88.8298 30.063 87.9522 30.2184 86.9492 30.0155C85.9376 29.8108 85.1808 29.3247 84.6791 28.5571C84.1773 27.7895 84.0236 26.9258 84.2178 25.9661ZM85.2813 26.1812C85.1378 26.8903 85.2264 27.5202 85.547 28.0712C85.8693 28.6134 86.3979 28.9589 87.1329 29.1076C87.8679 29.2563 88.4858 29.1383 88.9867 28.7536C89.4962 28.3707 89.8218 27.829 89.9635 27.1286C90.1052 26.4282 90.0149 25.8069 89.6926 25.2646C89.3807 24.7155 88.8572 24.3666 88.1223 24.2179C87.3873 24.0691 86.765 24.1863 86.2555 24.5692C85.7478 24.9435 85.423 25.4809 85.2813 26.1812Z" fill="#17161E"/>
<path d="M100.743 26.8404L101.288 27.0466L100.959 27.9129L100.44 27.716C100.126 27.5973 99.8268 27.5782 99.5416 27.6589C99.6908 28.1116 99.667 28.5979 99.4702 29.1176C99.2296 29.7529 98.78 30.2052 98.1214 30.4746C97.4741 30.7389 96.6007 30.8656 95.5011 30.8548C96.0211 30.9762 96.4827 31.1275 96.8858 31.3084C97.3003 31.4843 97.5984 31.7434 97.78 32.0858C97.9699 32.4313 97.9836 32.8185 97.8211 33.2475C97.718 33.5198 97.5836 33.7377 97.4178 33.9013C97.2521 34.065 97.0328 34.1706 96.7601 34.2182C96.4925 34.2773 96.2028 34.2949 95.891 34.2712C95.5793 34.2474 95.1805 34.1671 94.6946 34.0303C94.2056 33.9017 93.7063 33.7503 93.1968 33.5762C92.6873 33.4021 92.0613 33.1744 91.3188 32.8932L91.6469 32.027C93.5444 32.7456 94.8384 33.165 95.5287 33.2849C96.2274 33.408 96.6626 33.2427 96.8345 32.7889C97.2188 31.7742 95.8393 31.1574 92.6959 30.9385L92.7527 30.1534C93.8819 30.2604 94.9632 30.3445 95.9966 30.4057L96.1044 30.121C94.9649 29.9913 94.1035 29.6132 93.5201 28.9866C92.9367 28.36 92.8184 27.5888 93.1652 26.6731C93.4746 25.8563 94.0018 25.3485 94.7469 25.1496C95.492 24.9507 96.3307 25.0278 97.263 25.3808C98.0962 25.6964 98.7184 26.1585 99.1294 26.767C99.5179 26.6877 99.8097 26.652 100.005 26.6599C100.208 26.6708 100.454 26.731 100.743 26.8404ZM95.6958 29.5559C97.1231 30.0965 98.0461 29.814 98.4648 28.7085C98.8804 27.6113 98.3745 26.7924 96.9473 26.2518C95.5118 25.7081 94.5862 25.9849 94.1706 27.0821C93.7519 28.1877 94.2603 29.0123 95.6958 29.5559Z" fill="#17161E"/>
<path d="M105.031 27.5373C104.789 27.4105 104.627 27.2259 104.544 26.9836C104.47 26.7455 104.494 26.5092 104.617 26.2747C104.736 26.0481 104.914 25.8975 105.152 25.8231C105.398 25.7528 105.642 25.781 105.885 25.9079C106.119 26.0307 106.277 26.2132 106.36 26.4555C106.442 26.6977 106.424 26.9322 106.305 27.1588C106.182 27.3933 105.998 27.5457 105.752 27.616C105.506 27.6864 105.266 27.6601 105.031 27.5373ZM99.5488 33.2703L99.9786 32.4498L101.62 33.3093L103.867 29.0189L102.604 28.492L103.034 27.6714L104.443 28.2602C104.976 28.4794 105.107 28.8469 104.837 29.3627L102.522 33.782L104.164 34.6416L103.734 35.4622L99.5488 33.2703Z" fill="#17161E"/>
<path d="M106.492 32.7553C107.1 31.9106 107.814 31.4186 108.631 31.2793C109.456 31.1452 110.256 31.3565 111.029 31.9134C111.787 32.4599 112.227 33.1247 112.348 33.9076C112.469 34.6906 112.236 35.4901 111.648 36.3062L111.401 36.6498L107.181 33.6103C106.807 34.1893 106.641 34.7598 106.682 35.322C106.735 35.8821 107.069 36.3839 107.685 36.8273C108.129 37.147 108.569 37.3062 109.004 37.3048C109.445 37.2963 109.859 37.1216 110.246 36.7806L111.127 37.4147C110.899 37.6097 110.654 37.7698 110.39 37.8949C110.133 38.0251 109.833 38.1244 109.49 38.1928C109.155 38.2664 108.779 38.2515 108.364 38.1484C107.962 38.0432 107.56 37.8462 107.159 37.5575C106.257 36.9078 105.768 36.1532 105.691 35.2935C105.627 34.4317 105.894 33.5857 106.492 32.7553ZM107.66 32.9446L111.021 35.3653C111.341 34.9215 111.461 34.4533 111.381 33.9607C111.306 33.461 111.01 33.0255 110.495 32.6543C109.98 32.283 109.455 32.1281 108.922 32.1896C108.395 32.2562 107.975 32.5079 107.66 32.9446Z" fill="#17161E"/>
<path d="M116.136 42.4156C115.762 42.8151 115.31 43.0019 114.778 42.976C114.253 42.9437 113.655 42.6142 112.985 41.9876C111.522 40.6198 111.372 39.3141 112.535 38.0705L113.328 38.8116C112.569 39.6235 112.659 40.4693 113.6 41.349C113.98 41.7045 114.306 41.9121 114.576 41.9717C114.846 42.0313 115.093 41.9418 115.316 41.7034C115.4 41.6132 115.463 41.5268 115.504 41.4443C115.551 41.3554 115.569 41.2518 115.559 41.1335C115.555 41.0213 115.549 40.9248 115.54 40.8439C115.531 40.7631 115.487 40.6491 115.407 40.502C115.339 40.3545 115.286 40.2439 115.246 40.1703C115.212 40.1028 115.136 39.9712 115.017 39.7754C114.905 39.5857 114.832 39.4571 114.798 39.3896C114.606 39.0402 114.459 38.7581 114.358 38.543C114.264 38.3339 114.181 38.0933 114.109 37.8211C114.044 37.5424 114.044 37.2896 114.112 37.0626C114.179 36.8357 114.309 36.6191 114.502 36.4129C114.863 36.0263 115.304 35.8648 115.824 35.9285C116.351 35.9857 116.888 36.2705 117.435 36.7826C118.125 37.4273 118.476 38.0459 118.49 38.6384C118.51 39.2369 118.306 39.765 117.878 40.2225L117.086 39.4813C117.688 38.837 117.603 38.1533 116.83 37.4302C116.192 36.8337 115.689 36.732 115.322 37.125C115.117 37.3441 115.04 37.5807 115.093 37.8349C115.145 38.089 115.32 38.4826 115.619 39.0156C115.659 39.0892 115.729 39.221 115.829 39.4112C115.941 39.6009 116.018 39.7387 116.058 39.8248C116.105 39.9044 116.168 40.0302 116.249 40.2022C116.335 40.3679 116.39 40.4971 116.412 40.59C116.446 40.6825 116.484 40.8029 116.527 40.9513C116.576 41.1057 116.592 41.2362 116.577 41.3428C116.569 41.4554 116.551 41.5777 116.524 41.7097C116.503 41.8352 116.457 41.9554 116.386 42.0701C116.322 42.1909 116.238 42.306 116.136 42.4156Z" fill="#17161E"/>
<path d="M123.722 49.2709L126.685 54.8442L125.902 55.2604L122.939 49.6871L123.722 49.2709Z" fill="#17161E"/>
<path d="M128.07 56.8872L130.093 62.8664L129.253 63.1505L127.23 57.1713L128.07 56.8872Z" fill="#17161E"/>
<path d="M131.119 65.0992L132.156 71.3255L131.281 71.4712L130.244 65.2449L131.119 65.0992Z" fill="#17161E"/>
<path d="M67.4537 62.922C70.1436 61.1586 74.3952 61.5042 75.548 64.8471L81.9447 92.5108C82.0875 93.0875 82.2505 93.6915 82.3269 94.2802C82.822 98.0954 79.6627 101.416 75.8258 100.74C74.4929 100.506 75.1207 100.357 73.8074 100.74C72.9368 100.994 71.9581 101.278 71.0542 101.312C67.291 101.455 63.6215 99.0872 62.8619 95.2998C62.289 92.4445 63.5592 93.8812 60.5662 93.0374C55.7356 91.6755 54.3303 85.9677 56.8542 82.0923C57.3473 81.3351 57.5312 81.6467 57.2614 80.8402C56.7222 79.2282 57.2556 77.2708 58.3224 75.9882L58.8306 75.4271C59.0608 75.1776 59.0137 75.0776 58.9694 74.7517L58.9093 74.1158C58.6897 71.0913 60.571 68.1535 63.3446 66.9385C63.9815 66.6595 64.563 66.754 64.8025 66.1678L65.0453 65.6251C65.5987 64.5246 66.422 63.5975 67.4537 62.922ZM72.731 72.5293C71.3898 73.4937 71.7541 77.1664 69.3153 78.2557C67.671 78.9902 67.3033 77.9452 66.1543 77.215C65.5693 76.8431 64.8901 77.4044 64.819 78.0355C64.7015 79.0788 67.1668 80.3135 68.0995 80.3623C71.3676 80.5335 72.4485 77.8435 73.3884 75.2845C73.5454 74.8568 73.7083 74.3604 73.9528 73.9769C73.9172 73.8762 74.2902 73.3475 74.1745 72.9966C73.9567 72.3364 73.2861 72.3342 72.731 72.5293ZM66.6668 86.4902C66.0939 86.7529 65.8269 87.2306 65.6114 87.7997C64.5545 90.5912 65.2519 93.5496 68.1105 94.8743C68.7501 95.1706 69.4706 95.4393 70.1785 95.4967C71.0226 95.3704 71.107 94.2432 70.444 93.8345C70.1818 93.6729 69.8641 93.6301 69.5742 93.54C67.5523 92.9113 66.4885 90.8519 67.1474 88.8443C67.3163 88.3296 67.7662 87.7463 67.7489 87.203C67.5228 86.7634 67.1929 86.3928 66.6668 86.4902ZM72.2202 85.2105C69.8567 86.2008 74.4104 90.652 77.2594 89.9854C78.1451 89.6594 78.1401 88.6712 77.3078 88.3173C76.9593 88.1691 76.5268 88.1603 76.155 88.0803C73.6393 87.5378 73.6203 85.0042 72.2433 85.2077L72.2202 85.2105Z" fill="#17161E"/>
<path fill-rule="evenodd" clip-rule="evenodd" d="M81.2436 59.3597C83.4873 58.7367 85.824 59.3297 87.4924 60.9213C87.8501 61.2625 88.1627 61.1979 88.5853 61.1106C88.7565 61.0752 88.9457 61.0361 89.1632 61.0187C92.2573 60.7714 95.6098 62.7912 96.5542 65.7943L96.6935 66.2871C96.7557 66.5211 96.87 66.5547 97.0465 66.6067C97.1014 66.6228 97.1623 66.6407 97.2295 66.667C99.4866 67.5493 100.454 69.066 100.952 71.3109C101.106 71.4317 101.28 71.5291 101.454 71.6269C101.578 71.6963 101.702 71.7658 101.819 71.8441C105.973 74.6075 106.867 80.223 102.856 83.4802C102.576 83.7075 102.278 83.908 101.979 84.1087C101.86 84.1891 101.74 84.2697 101.621 84.352C102.658 87.1205 102.608 90.2329 100.744 92.6665C99.0424 94.6184 97.6606 95.2906 95.2467 95.8243C95.1835 95.8383 95.085 95.8568 94.9669 95.8789C94.5174 95.9632 93.7851 96.1004 93.6472 96.2443C90.3909 99.6367 84.9859 97.8288 83.8906 93.5331L77.4585 65.656C76.8274 62.747 78.0639 59.9335 81.2436 59.3597ZM82.6922 70.2067C81.3215 70.9297 82.4574 71.8287 83.2401 72.4482C83.386 72.5637 83.5197 72.6694 83.6225 72.7625C83.87 72.9866 84.1148 73.2235 84.3612 73.4621C84.9264 74.0091 85.5004 74.5646 86.1361 74.9938C87.4714 75.8954 89.425 75.9128 90.7982 75.0836C91.6067 74.5953 92.1504 73.8243 92.5694 72.9992C92.7467 72.5943 92.9767 72.0054 92.7788 71.5711C92.5461 71.0604 91.9536 70.9124 91.4912 71.2076C91.1771 71.408 91.0525 71.7389 90.9151 72.1037C90.732 72.59 90.5262 73.1367 89.8186 73.5153L89.7642 73.5452C89.4139 73.7309 88.8664 73.8448 88.4676 73.832L88.4104 73.8306C87.4098 73.7974 86.665 73.1477 85.976 72.4925L84.6163 71.1379C84.5839 71.1056 84.5514 71.0729 84.5187 71.04C84.0138 70.5317 83.4711 69.9854 82.6922 70.2067ZM89.1711 81.3433C91.2434 81.0373 90.0838 84.309 89.6277 85.1928C89.072 86.2697 88.0124 87.42 86.8296 87.7921C86.1468 88.0517 85.6895 87.5894 85.7331 86.9402C85.7635 86.4881 86.1092 86.1919 86.5451 85.8184C87.2246 85.2361 88.1234 84.4659 88.3882 82.6246C88.3927 82.5937 88.397 82.5633 88.4012 82.5335C88.4837 81.9488 88.5358 81.579 89.1711 81.3433ZM96.16 80.446C95.7078 80.0516 95.2819 79.7819 94.6707 79.9979C93.5525 80.7459 94.3595 81.4299 95.0522 82.0171C95.0727 82.0344 95.0931 82.0517 95.1133 82.0689C96.7316 83.4445 97.0167 85.9121 95.509 87.4853C95.4036 87.5953 95.2881 87.6915 95.1751 87.7856C94.8597 88.0481 94.5637 88.2947 94.5596 88.7804C94.5534 89.5477 95.3017 89.8615 95.9525 89.5556C96.395 89.3296 96.7093 88.969 97.0054 88.5788C99.04 85.8989 98.7765 82.7274 96.16 80.446Z" fill="#17161E"/>
</svg>
