<svg width="350" height="54" viewBox="0 0 350 54" fill="none" xmlns="http://www.w3.org/2000/svg">
<path d="M319.393 32.4314C319.393 28.0369 320.767 24.5734 323.516 22.041C326.265 19.4714 329.847 18.1865 334.261 18.1865C338.675 18.1865 342.217 19.4155 344.889 21.8734C347.599 24.3314 348.954 27.6645 348.954 31.8727V34.2189H326.478C326.556 36.4162 327.291 38.1851 328.685 39.5258C330.118 40.8293 332.267 41.481 335.132 41.481C339.275 41.481 341.733 39.9727 342.508 36.9562H350C349.497 39.5258 347.986 41.9093 345.47 44.1065C342.953 46.2665 339.507 47.3465 335.132 47.3465C329.982 47.3465 326.072 45.9314 323.4 43.101C320.728 40.2707 319.393 36.7141 319.393 32.4314ZM326.478 29.8617H341.869C341.869 28.1858 341.23 26.8079 339.952 25.7279C338.713 24.6479 336.816 24.1079 334.261 24.1079C331.705 24.1079 329.769 24.6665 328.453 25.7838C327.136 26.8638 326.478 28.2231 326.478 29.8617Z" fill="white"/>
<path d="M294.465 46.7882V22.5999C294.465 21.1848 294.852 20.1048 295.626 19.3599C296.439 18.6151 297.581 18.2613 299.053 18.2986L316.999 18.7455V25.002L301.957 24.611V46.7882H294.465Z" fill="white"/>
<path d="M261.873 43.4362C258.892 40.8293 257.401 37.2727 257.401 32.7665C257.401 28.2603 258.892 24.7038 261.873 22.0969C264.854 19.49 268.707 18.1865 273.431 18.1865C278.116 18.1865 281.949 19.49 284.93 22.0969C287.911 24.7038 289.402 28.2603 289.402 32.7665C289.402 37.2727 287.911 40.8293 284.93 43.4362C281.949 46.0431 278.116 47.3465 273.431 47.3465C268.707 47.3465 264.854 46.0431 261.873 43.4362ZM267.158 26.6776C265.648 28.1672 264.893 30.1969 264.893 32.7665C264.893 35.3362 265.648 37.3658 267.158 38.8555C268.668 40.3451 270.759 41.09 273.431 41.09C276.102 41.09 278.193 40.3451 279.703 38.8555C281.213 37.3658 281.968 35.3362 281.968 32.7665C281.968 30.1969 281.213 28.1672 279.703 26.6776C278.193 25.1879 276.102 24.4431 273.431 24.4431C270.759 24.4431 268.668 25.1879 267.158 26.6776Z" fill="white"/>
<path d="M213.686 27.0688C213.686 21.2219 215.525 16.3991 219.203 12.6005C222.881 8.76461 227.799 6.84668 233.955 6.84668C239.492 6.84668 243.983 8.26185 247.429 11.0922C250.875 13.8853 252.908 17.7212 253.527 22.5998H246.035C245.571 19.546 244.273 17.1998 242.144 15.5612C240.053 13.9225 237.362 13.1032 234.071 13.1032C230.006 13.1032 226.831 14.3508 224.546 16.846C222.301 19.3039 221.178 22.7115 221.178 27.0688C221.178 31.426 222.301 34.8522 224.546 37.3474C226.831 39.8425 230.006 41.0901 234.071 41.0901C237.362 41.0901 240.053 40.2708 242.144 38.6322C244.273 36.9563 245.571 34.5915 246.035 31.5377H253.527C252.908 36.4536 250.875 40.3267 247.429 43.157C243.983 45.9501 239.492 47.3467 233.955 47.3467C227.799 47.3467 222.881 45.4474 219.203 41.6488C215.525 37.8129 213.686 32.9529 213.686 27.0688Z" fill="white"/>
<path d="M176.92 39.0789C176.92 36.6582 177.752 34.7403 179.417 33.3251C181.121 31.91 183.908 30.9789 187.78 30.532L197.886 29.3589C197.77 25.8582 195.524 24.1079 191.149 24.1079C189.097 24.1079 187.451 24.5548 186.212 25.4486C185.012 26.3051 184.412 27.6086 184.412 29.3589H177.326C177.326 26.0445 178.604 23.3631 181.159 21.3148C183.715 19.2293 187.045 18.1865 191.149 18.1865C195.369 18.1865 198.796 19.3038 201.429 21.5382C204.062 23.7355 205.378 26.901 205.378 31.0348V40.5314H209.618V46.7879H203.694C202.416 46.7879 201.429 46.4527 200.732 45.7824C200.074 45.112 199.744 44.181 199.744 42.9893V42.0396L200.906 38.8555H198.931C197.537 44.5162 193.627 47.3465 187.2 47.3465C185.109 47.3465 183.328 47.0672 181.856 46.5086C180.424 45.95 179.378 45.2051 178.72 44.2741C178.062 43.3431 177.597 42.4679 177.326 41.6486C177.055 40.792 176.92 39.9355 176.92 39.0789ZM184.412 37.85C184.412 38.93 184.78 39.7493 185.515 40.3079C186.29 40.8293 187.296 41.09 188.535 41.09C191.362 41.09 193.627 40.4196 195.331 39.0789C197.034 37.701 197.886 35.9134 197.886 33.7162L189.116 34.7776C187.451 34.9638 186.251 35.2803 185.515 35.7272C184.78 36.1369 184.412 36.8445 184.412 37.85Z" fill="white"/>
<path d="M142.139 46.7881L153.173 33.6605V31.8171L142.139 18.7454H151.025L158.633 28.6329L166.183 18.7454H175.069L164.034 31.8171V33.6605L175.069 46.7881H166.183L158.633 36.8447L151.025 46.7881H142.139Z" fill="white"/>
<path d="M111.525 32.4314C111.525 28.0369 112.9 24.5734 115.649 22.041C118.398 19.4714 121.979 18.1865 126.393 18.1865C130.807 18.1865 134.35 19.4155 137.021 21.8734C139.732 24.3314 141.087 27.6645 141.087 31.8727V34.2189H118.611C118.688 36.4162 119.424 38.1851 120.818 39.5258C122.25 40.8293 124.399 41.481 127.264 41.481C131.407 41.481 133.866 39.9727 134.64 36.9562H142.132C141.629 39.5258 140.119 41.9093 137.602 44.1065C135.085 46.2665 131.639 47.3465 127.264 47.3465C122.115 47.3465 118.204 45.9314 115.532 43.101C112.861 40.2707 111.525 36.7141 111.525 32.4314ZM118.611 29.8617H134.001C134.001 28.1858 133.362 26.8079 132.085 25.7279C130.846 24.6479 128.949 24.1079 126.393 24.1079C123.838 24.1079 121.902 24.6665 120.585 25.7838C119.269 26.8638 118.611 28.2231 118.611 29.8617Z" fill="white"/>
<path d="M99.4258 7.40527H106.86V46.788H99.4258V30.6439H77.4142V46.788H69.9221V7.40527H77.4142V24.3873H99.4258V7.40527Z" fill="white"/>
<path fill-rule="evenodd" clip-rule="evenodd" d="M8.44933 8.42047C8.74002 8.18583 9.05141 7.97187 9.36192 7.75851C9.51574 7.65282 9.66933 7.54728 9.8201 7.43944L15.6756 3.26825C21.8113 -1.14237 24.8789 -1.11511 31.2997 3.51022L40.2046 9.76742C43.909 12.4323 45.6853 14.231 46.5835 19.0118C46.6919 19.5883 46.6811 20.2288 46.6709 20.84V20.8401V20.8403C46.6679 21.0204 46.6649 21.1978 46.6651 21.3704L46.6652 31.1715C46.6651 31.4628 46.6687 31.7564 46.6724 32.0512C46.6863 33.1753 46.7004 34.3167 46.509 35.4145C45.6317 40.4461 43.0382 42.3216 39.0222 45.1252L30.9313 50.8488C30.7314 50.9897 30.5333 51.1328 30.3353 51.2759C29.6939 51.7392 29.0535 52.2018 28.3574 52.5855C24.1185 54.9225 20.4668 54.2241 16.6493 51.515L7.84354 45.2527C7.4947 45.0642 7.14892 44.8015 6.81454 44.5474C6.68161 44.4464 6.55048 44.3468 6.42167 44.2537C2.56605 41.4686 0.0314774 38.6342 0.0201716 33.5677L0.0193645 21.7543C0.019455 21.5672 0.0147263 21.3729 0.00991968 21.1755C-0.00365629 20.6178 -0.0178533 20.0346 0.0741628 19.5158C0.998699 14.302 2.62062 12.5432 6.68136 9.68113L7.871 8.82269C7.9215 8.78614 7.9722 8.7476 8.02335 8.70872C8.16066 8.60434 8.30113 8.49756 8.44933 8.42047ZM11.0747 19.2845C9.89151 21.2619 9.85644 22.4241 9.85517 24.6827L9.85574 27.4847C9.85607 27.9314 9.84916 28.3472 9.84264 28.7395V28.7396C9.80306 31.1213 9.77793 32.6337 11.4749 34.9214C12.3255 35.7633 13.2874 36.4186 14.2895 37.0663L17.5197 39.0878C17.724 39.2161 17.9212 39.3406 18.1121 39.461C21.9973 41.9127 23.2371 42.695 27.5124 40.127L32.4937 37.0697C35.8534 34.9408 36.8203 33.4752 36.826 29.6717L36.8233 22.5692C36.7633 19.7717 34.8053 18.1283 32.6265 16.7966L27.7701 13.8074C24.4604 11.7751 23.0148 11.3977 19.3529 13.543L16.0355 15.5934C15.7072 15.8003 15.3728 16.0037 15.0371 16.2077C14.0649 16.7987 13.0825 17.3959 12.2107 18.1056C11.9179 18.3439 11.6843 18.6078 11.4464 18.8765C11.3376 18.9995 11.2278 19.1235 11.111 19.2465L11.0747 19.2845ZM23.2209 16.2602C24.4676 16.0827 26.0311 17.146 27.2419 17.9695C27.5408 18.1728 27.8183 18.3616 28.0642 18.5133L30.2703 19.8694C32.6194 21.3289 32.9281 22.015 32.9304 24.9096L32.93 29.4271C32.9279 31.7371 32.4367 32.5759 30.5592 33.7347L25.8117 36.6685C25.7365 36.7115 25.6608 36.7559 25.5844 36.8007L25.5842 36.8008C25.2523 36.9953 24.9087 37.1967 24.5526 37.3217L24.4993 37.3398C24.1624 37.4574 23.843 37.4979 23.4897 37.5349C21.9621 37.5739 20.361 36.4805 18.9781 35.5361C18.6469 35.31 18.3283 35.0924 18.0261 34.9009C17.67 34.6752 17.3364 34.4724 17.0254 34.2833L17.0254 34.2833C14.8601 32.9669 13.7872 32.3146 13.7847 29.2144L13.7859 24.6591C13.7885 22.681 13.9393 21.6666 15.7094 20.3746C16.4756 19.8152 17.3052 19.3269 18.1299 18.8414L18.13 18.8413C18.4497 18.6531 18.7687 18.4653 19.083 18.274C19.3469 18.1133 19.6062 17.9458 19.8647 17.7787L19.8647 17.7787C20.9104 17.1031 21.9437 16.4355 23.2209 16.2602ZM23.2078 21.2557C19.2755 21.5511 17.9651 24.671 18.266 28.1896C18.4818 30.7148 20.9843 32.7834 23.5288 32.6738C24.9659 32.5752 26.4062 31.8143 27.3539 30.7418C28.5596 29.3773 28.5921 27.4238 28.4713 25.6985C28.3 23.2486 25.6713 21.0762 23.2078 21.2557ZM26.231 29.4451C27.9962 27.039 26.5977 22.7059 23.0118 22.9975C20.8236 23.3869 19.9421 24.9145 19.9434 26.9928C19.9447 29.3283 21.187 31.0838 23.8139 30.8299C24.7792 30.6807 25.6474 30.2405 26.231 29.4451Z" fill="url(#paint0_linear_37_963)"/>
<defs>
<linearGradient id="paint0_linear_37_963" x1="-9.04655" y1="23.3054" x2="57.4806" y2="1.30086" gradientUnits="userSpaceOnUse">
<stop offset="0.249585" stop-color="#E3FE0F"/>
<stop offset="1" stop-color="#506491"/>
</linearGradient>
</defs>
</svg>
