<svg width="292" height="24" viewBox="0 0 292 24" fill="none" xmlns="http://www.w3.org/2000/svg">
<path d="M2 19.6903C6.42688 17.9629 12.5336 17.9359 16.9934 17.5513C32.2692 16.2341 47.5525 15.1701 62.8031 13.5624C96.5497 10.0049 130.152 4.59173 164.023 2.23166C165.128 2.15467 166.235 2.11503 167.342 2.05823C169.256 1.95993 168.719 1.96661 166.749 2.23166C158.312 3.36688 149.871 4.61114 141.503 6.16275C133.485 7.64947 112.603 9.35832 109.976 19.8059C108.982 23.7578 139.382 21.1868 141.029 21.0777C176.281 18.7423 211.145 11.9772 246.398 9.16887C261.459 7.96907 276.561 7.20333 291.674 7.20333C293.294 7.20333 288.434 7.20333 286.814 7.20333" stroke="#E3FE0F" stroke-width="3" stroke-linecap="round"/>
</svg>
