<svg width="21" height="24" viewBox="0 0 21 24" fill="none" xmlns="http://www.w3.org/2000/svg">
<path d="M4.36447 11.4815C4.36448 11.364 4.38766 11.2478 4.43265 11.1393C4.47764 11.0309 4.54357 10.9325 4.62665 10.8496C4.70974 10.7668 4.80832 10.7012 4.91676 10.6567C5.02521 10.6121 5.14137 10.5895 5.25859 10.59L6.74102 10.5949C6.97737 10.5949 7.20405 10.6889 7.37117 10.8564C7.53831 11.0238 7.63221 11.2509 7.63221 11.4877V17.1032C7.79909 17.0536 8.01343 17.0006 8.24796 16.9453C8.41088 16.907 8.55606 16.8146 8.65999 16.6832C8.7639 16.5518 8.82043 16.3891 8.8204 16.2214V9.25566C8.8204 9.01885 8.91428 8.79175 9.0814 8.62428C9.24853 8.45682 9.47521 8.36273 9.71159 8.36268H11.197C11.4333 8.36273 11.66 8.45682 11.8271 8.62428C11.9942 8.79175 12.0881 9.01885 12.0881 9.25566V15.7206C12.0881 15.7206 12.46 15.5698 12.8223 15.4166C12.9568 15.3596 13.0717 15.2642 13.1525 15.1422C13.2332 15.0202 13.2764 14.8771 13.2765 14.7308V7.02364C13.2765 6.78689 13.3704 6.55981 13.5375 6.39239C13.7045 6.22496 13.9312 6.13089 14.1675 6.13084H15.6529C15.8892 6.13084 16.1159 6.22489 16.2831 6.39233C16.4502 6.55976 16.5441 6.78685 16.5441 7.02364V13.3703C17.8318 12.4353 19.1369 11.3108 20.1725 9.95864C20.3228 9.76237 20.4222 9.53189 20.4619 9.28779C20.5016 9.04368 20.4804 8.79351 20.4001 8.55961C19.9207 7.17783 19.1588 5.91151 18.1628 4.84169C17.1669 3.7719 15.959 2.92215 14.6165 2.34685C13.2739 1.77155 11.8263 1.48337 10.3662 1.50074C8.90609 1.51811 7.46569 1.84066 6.13718 2.44773C4.80865 3.05481 3.62125 3.93305 2.65097 5.02626C1.68069 6.11944 0.9489 7.40354 0.502425 8.79634C0.0559507 10.1891 -0.0953743 11.66 0.0581327 13.1147C0.21164 14.5695 0.6666 15.9761 1.3939 17.2446C1.52059 17.4634 1.70699 17.6415 1.93119 17.7578C2.15538 17.8742 2.40807 17.9241 2.65958 17.9016C2.94054 17.8769 3.29035 17.8418 3.70626 17.7928C3.88731 17.7722 4.05447 17.6856 4.17588 17.5495C4.2973 17.4134 4.36448 17.2373 4.36464 17.0548L4.36447 11.4815Z" fill="#E3FE0F"/>
<path d="M4.33203 20.4878C5.8977 21.6289 7.74798 22.3139 9.67813 22.4669C11.6083 22.6197 13.5431 22.2348 15.2684 21.3545C16.9937 20.4741 18.4422 19.1328 19.4539 17.4789C20.4654 15.825 21.0005 13.923 21 11.9832C21 11.7412 20.9888 11.5017 20.9727 11.2637C17.1382 16.9929 10.0583 19.6714 4.33236 20.4869" fill="#E3FE0F"/>
</svg>
