<svg width="21" height="24" viewBox="0 0 21 24" fill="none" xmlns="http://www.w3.org/2000/svg">
<path d="M19.6576 3.63707L0.976327 10.5822C-0.284369 11.0232 -0.284369 11.7949 0.74711 12.0154L5.44607 13.4485L7.27981 18.7401C7.50903 19.2913 7.39442 19.5118 7.96746 19.5118C8.4259 19.5118 8.65512 19.2913 8.88433 19.0708C8.99894 18.9605 10.0304 17.9684 11.1765 16.866L15.9901 20.2834C16.9069 20.7244 17.48 20.5039 17.7092 19.5118L20.9183 5.0702C21.2621 3.85755 20.4598 3.1961 19.6576 3.63707ZM17.2508 6.94429L8.31129 14.7714L7.96746 18.4093L6.13372 13.1178L16.6777 6.72381C17.1362 6.39309 17.5946 6.61357 17.2508 6.94429Z" fill="#E3FE0F"/>
</svg>
