<svg width="60" height="50" viewBox="0 0 60 50" fill="none" xmlns="http://www.w3.org/2000/svg">
<path d="M21.115 0.010719C20.891 -0.0125888 20.6577 0.0015386 20.4396 0.0587563C20.3139 0.091715 20.1794 0.137602 20.0688 0.206853L18.9017 1.01673L15.0313 3.63571L12.2593 5.47177C11.8322 5.75639 11.3815 6.02979 10.9734 6.3418C10.8517 6.4349 10.7617 6.57689 10.7042 6.71842C10.5788 7.02728 10.5895 7.3302 10.5912 7.65772L10.5956 8.50768L10.5984 10.4612C10.5977 10.5255 10.6185 10.7706 10.594 10.819C10.5806 10.8455 10.4107 10.9388 10.3732 10.9641L9.38419 11.642C8.98297 11.9146 8.46928 12.1619 8.21814 12.5974C8.11397 12.778 8.02687 12.9979 8.01347 13.2075C7.97795 13.7622 8.02392 14.3441 8.02366 14.9022L8.01847 18.2199L8.02071 19.2457C8.02219 19.4539 8.00878 19.6851 8.06387 19.8866C8.26003 20.6034 8.72714 20.8929 9.31514 21.2753L10.3443 21.9602C10.3845 21.9891 10.5678 22.1034 10.58 22.1319C10.5895 22.1543 10.5778 22.2632 10.5775 22.2927L10.5762 22.8194L10.5669 26.5126L10.5643 27.6714C10.565 27.9595 10.5599 28.2662 10.6107 28.5503C10.8272 29.761 11.5527 30.9569 12.4313 31.7896C12.8379 32.1749 13.2857 32.4595 13.7438 32.7729L15.4874 33.9533L20.1338 37.1186L30.495 44.1751L38.2665 49.4638C38.6612 49.7221 39.0486 49.8786 39.512 49.9584C39.9818 50.0392 40.5998 50.009 41.0409 49.8083C41.2674 49.7052 41.4613 49.501 41.6638 49.3547L42.9662 48.4516L48.8322 44.4148C49.0045 44.2951 49.208 44.2329 49.3985 44.149C49.5824 44.0679 49.7599 43.9646 49.9229 43.846C50.4612 43.4542 50.8493 42.878 50.956 42.2098C51.0149 41.8409 50.988 41.443 50.9888 41.0694L50.9914 39.2209L50.9941 32.3817L50.9947 25.5995L50.9945 23.5598C50.9944 23.1699 51.0174 22.7618 50.9701 22.3745C50.8569 21.448 50.5021 20.5869 49.9646 19.8331C49.6626 19.4094 49.3304 18.9883 48.9148 18.6746L47.5268 17.7233L45.5102 16.351L37.2454 10.7381L27.2296 3.93503L24.072 1.78252L21.8962 0.306634C21.6472 0.148674 21.4052 0.0583065 21.115 0.010719Z" fill="#17161E"/>
<path d="M10.6084 12.9272C10.4189 13.0036 10.2284 13.1653 10.0718 13.2973L10.2637 13.4675L10.6063 13.7151L10.6084 12.9272Z" fill="#E3FE0F"/>
<path d="M10.6212 11.644L9.61041 12.3107C9.30113 12.5254 8.79823 12.8045 8.73132 13.2079C8.68388 13.4939 8.7988 13.7385 8.99327 13.9403C9.18616 14.1404 9.44611 14.2953 9.67488 14.4503L10.9099 15.2776L16.4885 19.0351L18.2009 20.1944C18.474 20.3825 18.7655 20.562 19.0202 20.7753C19.3291 21.0341 19.6079 21.3507 19.8423 21.6797C20.519 22.6295 21.0334 23.8668 20.8408 25.057C20.8301 25.1219 20.8129 25.1834 20.8347 25.2474L20.8757 25.2151C21.1616 24.9801 21.2945 24.5935 21.3214 24.2323C21.417 22.9497 20.5797 21.5981 19.7217 20.7302C19.3731 20.3776 18.9398 20.1432 18.5287 19.8757L17.351 19.0901L11.5925 15.2119L10.4622 14.4724C10.1442 14.2638 9.79907 14.0557 9.5539 13.7575C9.43352 13.6111 9.35718 13.4434 9.38496 13.2496C9.46344 12.7025 10.2179 12.356 10.6243 12.0759L10.6212 11.644Z" fill="#E3FE0F"/>
<path d="M11.3609 28.6064C11.4486 28.9824 11.5672 29.3501 11.7389 29.6954C12.1056 30.4333 12.6129 31.0619 13.2558 31.57C13.7285 31.9434 14.2496 32.2653 14.7465 32.6049L17.5704 34.5267L26.2889 40.447L35.0067 46.377L37.6663 48.1816C38.1458 48.5025 38.6613 48.949 39.2074 49.1283C39.7961 49.3216 40.3731 49.3201 40.9307 49.0345L40.9899 48.9943C40.9917 48.9927 41.0313 48.9494 41.0338 48.9424C41.0532 48.8878 41.0351 48.7566 41.0356 48.6908L41.0457 47.9231C40.6654 48.036 40.2647 48.0934 39.8691 48.0368C39.5024 47.9845 39.1323 47.8448 38.816 47.6514L37.3045 46.6352L34.2759 44.582L27.3099 39.8619L25.6743 38.7315L17.664 33.2797L13.9457 30.7618C13.5123 30.4641 13.0467 30.1914 12.6279 29.8752C12.1565 29.5193 11.711 29.0864 11.3609 28.6064Z" fill="#E3FE0F"/>
<path d="M8.70244 14.6357C8.67023 14.9271 8.69597 15.2551 8.69571 15.5501L8.69495 17.4138L8.69586 18.9174C8.69612 19.1392 8.67161 19.3903 8.70346 19.607C8.73592 19.8278 8.82016 20.0307 8.98135 20.1857C9.18927 20.3856 9.48633 20.5377 9.72621 20.6996L11.3427 21.7962L16.0584 25.0126L18.6152 26.7732C18.938 26.6493 19.2656 26.4264 19.5363 26.2101C19.6127 26.1371 19.6817 26.0627 19.7454 25.9782C20.1201 25.4811 20.2538 24.8234 20.1682 24.2089C20.0381 23.2742 19.5808 22.3514 18.9488 21.6629C18.5728 21.2535 18.1516 21.0111 17.6999 20.7029L16.1546 19.6585L10.9193 16.131L9.5962 15.233C9.29568 15.0348 8.99012 14.854 8.70244 14.6357Z" fill="#E3FE0F"/>
<path d="M16.7286 21.5374C16.555 21.5179 16.3451 21.509 16.1844 21.5866C16.0206 21.6656 15.8852 21.8387 15.8272 22.011C15.7029 22.38 15.8422 22.8476 16.0035 23.1853C16.2188 23.6362 16.5645 24.0102 17.0383 24.1747C17.2281 24.1777 17.3837 24.1541 17.5586 24.0762C17.7659 23.9838 17.8857 23.8282 17.9623 23.6134C18.0883 23.2597 17.9837 22.8379 17.8193 22.5141C17.5865 22.0557 17.2135 21.6948 16.7286 21.5374Z" fill="#17161E"/>
<path d="M48.4863 22.9077L45.5334 24.7648L45.56 45.8043L48.5964 43.6726L48.5901 29.074L48.5878 25.411C48.5865 24.592 48.656 23.7096 48.4863 22.9077Z" fill="#E3FE0F"/>
<path d="M20.9791 0.682889C20.5064 0.656252 20.2408 0.941084 19.8741 1.19371C20.1239 1.38985 20.4009 1.56125 20.661 1.74399L22.6995 3.14027L27.9088 6.68801L40.9882 15.5735L45.1628 18.3726L46.245 19.1085C46.7002 19.4123 47.1521 19.7089 47.5392 20.1017C48.3145 20.8885 48.9814 21.9153 49.2004 23.0192C49.264 23.3399 49.2586 23.6578 49.2593 23.9828L49.2608 25.1545L49.2615 28.9335L49.2631 43.4269L49.5424 43.2403C49.9486 42.9531 50.245 42.5181 50.3281 42.0185C50.378 41.7184 50.3493 41.3905 50.3482 41.0859L50.3514 39.6418L50.3436 33.6839L50.3394 26.0769L50.3381 23.8221C50.3377 23.4176 50.3644 22.9867 50.3152 22.586C50.2081 21.7135 49.8731 20.8827 49.3643 20.1707C49.144 19.8623 48.8664 19.515 48.5673 19.2792C48.1289 18.9335 47.6305 18.6338 47.1674 18.3213L44.814 16.7248L38.0417 12.1251L26.0082 3.95109L23.2145 2.04743L21.5778 0.920966C21.3816 0.794088 21.211 0.719621 20.9791 0.682889Z" fill="#E3FE0F"/>
<path d="M13.2628 5.72802C13.1111 5.7029 12.7669 6.00907 12.6319 6.10749C12.9397 6.15644 13.2614 6.24055 13.5283 6.4088L14.4479 7.05138L15.5823 7.81978L20.579 11.2181L22.8348 12.723L31.7491 18.7871L37.7991 22.9086C38.4746 23.3851 39.2499 23.8096 39.8382 24.3939C40.7024 25.252 41.3753 26.3543 41.6341 27.56C41.7293 28.0037 41.7302 28.4436 41.7308 28.8946L41.7332 30.1206L41.7385 33.6791L41.7301 48.4224L44.2201 46.72L44.8555 46.2791L44.8516 25.2323L42.7879 26.5282L42.3358 26.8171C42.2517 26.8716 42.1509 26.9519 42.0513 26.9708C41.9272 26.9944 41.8093 26.9118 41.7458 26.8098C41.6382 26.6367 41.5977 26.3548 41.5252 26.1575C41.3748 25.7482 41.1709 25.3609 40.9329 24.9974C40.6754 24.6042 40.3604 24.2325 40.0004 23.9309C39.7193 23.6953 39.4086 23.4917 39.1072 23.2841L37.827 22.4017L33.3715 19.351L25.4088 13.9476L20.2433 10.4364L15.7771 7.41519L14.0343 6.24856L13.2628 5.72802Z" fill="#E3FE0F"/>
<path d="M16.2225 3.69531L13.8575 5.26498L16.1222 6.79883L19.9765 9.41304L34.072 18.9898L38.622 22.1012L39.7023 22.8467C39.9572 23.0221 40.2254 23.1942 40.4548 23.4033C41.0067 23.9063 41.4802 24.5213 41.8308 25.1844C41.917 25.3475 41.9923 25.5159 42.056 25.6893C42.0954 25.7968 42.133 25.9848 42.213 26.0643L42.2739 26.0345L44.7224 24.5008C44.4188 23.5639 43.8705 22.6825 43.1328 22.0347C42.8185 21.7587 42.4304 21.5355 42.0836 21.3016L40.3354 20.1058L33.6614 15.5486L27.6031 11.4069L22.2311 7.77374L16.2225 3.69531Z" fill="#E3FE0F"/>
<path d="M19.2612 1.64111C18.8936 1.83811 18.5519 2.10481 18.207 2.33981L16.8676 3.25712L20.075 5.45157L23.5666 7.82195L35.9301 16.2458L41.0337 19.7429L42.717 20.8926C43.0376 21.1145 43.3811 21.3314 43.672 21.5917C44.4219 22.2626 44.9351 23.1517 45.3086 24.0814L45.5772 23.9163C45.8338 23.7604 48.1679 22.3304 48.1934 22.2362C47.8654 21.5125 47.3752 20.8454 46.7663 20.3386C46.3681 20.0072 45.9163 19.7325 45.4874 19.4436L43.414 18.0477L37.6957 14.1767L24.9759 5.55319L21.2775 3.03011L19.2612 1.64111Z" fill="#E3FE0F"/>
<path d="M12.3982 6.72903C12.2084 6.70763 12.0139 6.70571 11.827 6.75006C11.6414 6.79416 11.4919 6.85877 11.3927 7.02941C11.3521 7.09929 11.3347 7.1729 11.326 7.25292C11.2907 7.57439 11.3146 7.92424 11.3142 8.24809L11.3145 10.2896L11.3144 13.4334L11.3142 13.988C11.3142 14.0316 11.3005 14.151 11.3141 14.1878C11.3391 14.2558 19.0425 19.3106 19.741 19.832C19.935 19.9768 20.1111 20.1457 20.2808 20.3188C21.0552 21.1086 21.6844 22.1606 21.9392 23.2494C22.1018 23.9437 22.1039 24.7019 21.721 25.3246C21.604 25.5149 21.4602 25.6982 21.2915 25.844C20.9828 26.1109 20.5857 26.3251 20.2451 26.551L19.4802 27.0767C19.2901 27.2083 19.0647 27.3829 18.8352 27.4309C18.6577 27.468 18.4515 27.4534 18.2864 27.3741C18.0628 27.2666 17.8487 27.0846 17.6443 26.9416L16.6145 26.2388L11.2736 22.6056L11.2729 24.9579C11.2709 25.5197 11.2352 26.1097 11.3458 26.6625C11.5272 27.5694 12.0355 28.3781 12.6989 29.002C12.9777 29.2641 13.2971 29.4661 13.6124 29.6788L14.5434 30.3195L18.0097 32.682L30.4698 41.1409L36.5087 45.2435L38.1136 46.3306C38.479 46.5852 38.86 46.9055 39.2562 47.1048C39.8592 47.4082 40.4175 47.3523 41.0332 47.1473L41.0483 43.3623L41.0458 35.3587L41.0494 30.6434L41.0523 29.0679C41.0522 28.7545 41.0685 28.4297 41.0299 28.1189C40.9286 27.305 40.618 26.5575 40.1749 25.8762C39.8557 25.3856 39.467 24.9419 39.0016 24.5885L37.5274 23.5674L34.095 21.2219L24.294 14.5737L16.2721 9.13988L14.2445 7.76281C13.9013 7.52415 13.5632 7.24812 13.2096 7.02941C12.9599 6.87495 12.6825 6.78842 12.3982 6.72903Z" fill="#E3FE0F"/>
</svg>
