<svg width="59" height="51" viewBox="0 0 59 51" fill="none" xmlns="http://www.w3.org/2000/svg">
<path d="M19.5865 3.45453C19.2724 3.42063 19.0343 3.45339 18.7554 3.60757C18.5115 3.74237 18.281 3.91679 18.0523 4.07551L16.8046 4.94725L12.3818 7.97562L7.67024 11.1871L6.41853 12.0687L3.72752 13.9065C3.23003 14.246 2.70345 14.5691 2.23 14.9396C2.14828 15.0036 2.06751 15.0715 2.04036 15.1746L2.03366 15.2034C1.97665 15.4353 2.00945 15.7269 2.00884 15.9688L2.0074 17.5453L2.00358 23.308C2.00491 23.3988 1.99339 23.5454 2.04081 23.6224C2.0946 23.7097 2.17271 23.7759 2.25642 23.8347L6.59127 26.8033L8.86971 28.396L22.8432 37.9398L33.0673 44.9304L36.3054 47.1272L37.8838 48.206C38.0585 48.3162 38.2292 48.3795 38.4293 48.4303C38.6776 48.4582 38.9186 48.4416 39.1501 48.3398C39.4073 48.2266 39.6451 48.0169 39.8792 47.8602L41.5049 46.7797L46.5162 43.4165L52.1882 39.6248L54.2556 38.2496C54.6057 38.0186 54.9925 37.8054 55.3216 37.5478C55.5807 37.3448 55.7552 37.0712 55.8686 36.7683C55.9334 36.5955 55.9812 36.4233 55.9893 36.2383L55.9832 34.8219L55.983 31.9595L55.9896 29.9327C55.9916 29.5708 56.0126 29.1963 55.9885 28.8358C55.9749 28.632 55.9194 28.4323 55.8284 28.2485C55.7084 28.0063 55.5274 27.8384 55.3073 27.6835L52.7722 25.9617L47.0671 22.0933L29.6866 10.262L23.4023 5.96308L21.2961 4.51621L20.476 3.95174C20.1852 3.75161 19.9275 3.56484 19.5865 3.45453Z" fill="#17161E"/>
<path d="M55.2495 28.8286C54.9812 28.9263 54.6978 29.1135 54.4964 29.3129C54.4453 29.3635 54.3508 29.4685 54.3275 29.533C54.2894 29.639 54.3111 29.8194 54.3108 29.9343L54.3104 30.8638C54.4421 30.8497 54.56 30.8513 54.6843 30.8998C54.7435 30.9577 54.7826 30.9993 54.7934 31.0831C54.8276 31.3496 54.8008 31.6532 54.8 31.923C54.7994 32.1216 54.8256 32.3723 54.7765 32.5632C54.7625 32.6174 54.7297 32.6642 54.6943 32.7071C54.6174 32.8005 54.5019 32.9081 54.3746 32.9159C54.2812 32.9215 54.2016 32.8993 54.1351 32.8326C54.0909 32.7884 54.0544 32.7209 54.0424 32.6599C54.0175 32.5324 54.0337 32.3729 54.0337 32.242L54.0383 31.3595L43.0912 38.8856L40.2426 40.8475C40.1828 40.8894 39.8131 41.1153 39.7966 41.1595C39.7812 41.2004 39.7975 41.3322 39.7978 41.3839L39.801 42.0716L39.8025 45.1347C39.8017 45.6127 39.8344 46.1185 39.7953 46.5938C39.7913 46.6421 39.7777 46.6849 39.7475 46.7234C39.6822 46.8067 39.567 46.847 39.4631 46.8534C39.3445 46.8607 39.2157 46.8088 39.134 46.7243C39.0907 46.6795 39.0569 46.6282 39.0487 46.5661C39.0278 46.4072 39.0421 46.2292 39.0417 46.0681L39.0393 45.126L39.0322 41.9472L39.0281 41.6427L38.1274 42.2913L38.1109 45.8574V46.7747C38.1114 46.9387 38.0975 47.1198 38.1259 47.2816C38.1442 47.3852 38.2011 47.4829 38.2759 47.5575C38.3726 47.6539 38.5092 47.669 38.6412 47.6706C38.7538 47.672 38.8412 47.6426 38.9388 47.5889C39.1138 47.4923 39.2808 47.3591 39.4451 47.2453L40.3433 46.6397L44.6595 43.752L52.2728 38.6615L54.3159 37.3152C54.547 37.1598 54.8346 37.0093 55.0329 36.8168C55.1572 36.6961 55.2253 36.5143 55.2497 36.3467C55.2894 36.0732 55.2653 35.7643 55.2642 35.4874L55.2568 33.8756L55.2495 28.8286Z" fill="white"/>
<path d="M54.5535 33.7112C54.5082 33.7047 54.4596 33.7016 54.4144 33.7112C54.3058 33.7343 54.173 33.8539 54.1131 33.9415C54.0785 33.9921 54.0586 34.0449 54.0512 34.1053C54.0136 34.4124 54.0405 34.7453 54.0405 35.0562C54.0404 35.4187 54.0056 35.8153 54.0643 36.1707C54.1225 36.2679 54.1831 36.2889 54.2869 36.331C54.3535 36.3322 54.421 36.3325 54.4838 36.3081C54.6145 36.2574 54.7259 36.112 54.7763 35.9867C54.8288 35.8559 54.8323 33.9945 54.7716 33.8853C54.7166 33.7862 54.6603 33.7473 54.5535 33.7112Z" fill="#17161E"/>
<path d="M51.956 33.4395C51.8601 33.4422 51.8098 33.4563 51.7283 33.506C51.1586 33.853 50.6169 34.2734 50.0677 34.6531L46.6613 36.9978L43.4443 39.2121L42.1188 40.129C41.7968 40.3523 41.4681 40.5658 41.1675 40.8169C41.116 41.051 41.1534 41.3693 41.152 41.6114L41.1432 43.5956L41.1361 44.5733C41.1346 44.7333 41.1146 44.9141 41.1417 45.0705C41.1616 45.1856 41.2174 45.194 41.3128 45.2548L41.4712 45.2799C41.5426 45.2613 41.5897 45.2377 41.651 45.1974L45.6761 42.4799L49.7336 39.7667L51.1928 38.7958C51.496 38.5993 51.8556 38.4229 52.1135 38.1734C52.1545 37.9584 52.1282 37.6952 52.128 37.4753L52.1269 36.0963L52.1268 34.5441C52.1285 34.2132 52.1536 33.8774 52.1168 33.5482C52.0608 33.4735 52.0413 33.4716 51.956 33.4395Z" fill="#17161E"/>
<path d="M43.9783 39.4951L43.5317 39.8591L43.5323 43.2701L43.9497 42.9608C44.0115 42.884 43.9799 39.8379 43.9783 39.4951Z" fill="white"/>
<path d="M49.7026 35.5522C49.5518 35.6383 49.41 35.7538 49.2693 35.8558L49.2633 39.432L49.707 39.1367L49.7026 35.5522Z" fill="white"/>
<path d="M46.8311 37.5103L46.3738 37.8587L46.3812 41.3989L46.8252 41.0779L46.8311 37.5103Z" fill="white"/>
<path d="M2.76044 18.7646L2.76266 23.2759L37.3438 46.9228L37.3628 42.3892C37.1358 42.1904 36.8096 42.0197 36.5566 41.8453L34.0994 40.1831L25.6232 34.3943L18.0349 29.2002L14.6323 26.8347L10.7647 24.2067L4.70554 20.0662L2.76044 18.7646Z" fill="white"/>
<path d="M6.54006 24.2806C6.46139 24.2663 6.39624 24.2663 6.32034 24.2918C6.20849 24.3293 6.1481 24.4064 6.09703 24.507C6.0521 24.5955 6.04151 24.7013 6.08013 24.7945C6.10556 24.8558 6.15132 24.8981 6.20312 24.9386C6.49579 25.1677 6.82992 25.3639 7.13528 25.5802L10.6575 27.9774L12.2826 29.0876C12.5131 29.2439 12.7329 29.4346 12.9864 29.553C13.0282 29.5681 13.0592 29.5735 13.1047 29.5737C13.2065 29.5741 13.3 29.4997 13.3643 29.4288C13.4567 29.3267 13.4549 29.221 13.4506 29.091C13.399 28.9716 13.3209 28.9093 13.2177 28.8339L10.719 27.1429L8.01847 25.2917L7.13822 24.6773C6.95168 24.5429 6.75513 24.3671 6.54006 24.2806Z" fill="#17161E"/>
<path d="M19.3962 4.16923L19.3499 4.16064C19.0111 4.28876 18.6647 4.5864 18.3611 4.7867L14.9451 7.12618L6.12677 13.1657L2.74199 15.4862L2.75501 17.8036C2.90475 17.9817 3.25034 18.157 3.44696 18.2919L5.03251 19.3852L12.0718 24.174L19.6137 29.3702L32.0805 37.8852L37.7045 41.7089L37.874 41.5797L41.8996 38.7928L49.5737 33.5107L53.1829 31.0163C53.2769 30.9482 53.4743 30.8514 53.5381 30.7701C53.5471 30.7587 53.5365 30.5495 53.5363 30.5223C53.5344 30.2192 53.4959 29.8552 53.5763 29.5602C53.7483 28.9292 54.1909 28.5451 54.7446 28.2239C53.9456 27.6138 53.0756 27.0669 52.24 26.5044L48.2719 23.8179L41.2497 19.0197L34.2841 14.3033L24.6268 7.69821L21.6294 5.64518C20.9098 5.14593 20.173 4.57581 19.3962 4.16923Z" fill="white"/>
<path d="M19.4111 5.96582L14.4957 9.28602L10.0643 12.3297L7.13268 14.3481C6.66493 14.6705 6.15409 14.9771 5.7095 15.3269C5.6556 15.3692 5.59621 15.4245 5.56939 15.4884C5.40065 15.891 5.86589 16.0752 6.13636 16.2582L14.7058 22.1735L21.0383 26.5578L23.0815 27.9591C23.1858 28.0343 23.3716 28.145 23.4188 28.2593C23.3576 28.2933 23.3094 28.3185 23.2619 28.3706C23.3507 28.8475 23.4893 29.3207 23.6109 29.7909C23.6552 29.9623 23.6937 30.2362 23.7879 30.3817C24.2981 30.6872 24.7787 31.0515 25.2701 31.386L28.079 33.3029L34.8926 37.9418L36.3566 38.9413C36.471 39.0188 36.7018 39.2359 36.8375 39.2336L37.8081 39.2378L38.6281 39.2432L47.4736 33.1837L50.6154 31.0287C51.0127 30.7489 51.4642 30.4963 51.8104 30.1582C51.8654 29.8835 51.8389 29.5798 51.8383 29.3004C51.8375 28.8876 51.8493 28.471 51.82 28.0592C51.6066 27.8302 51.2975 27.6579 51.0365 27.483L49.7599 26.6248L43.0274 22.0512L27.1921 11.2511L22.027 7.72881L19.4111 5.96582Z" fill="#17161E"/>
<path d="M14.5222 10.1772L13.8416 10.6458L31.4742 22.6996C31.706 22.5773 31.9366 22.3995 32.1479 22.2462L14.5222 10.1772Z" fill="white"/>
<path d="M15.8936 9.25977L15.1806 9.73787L32.8066 21.7737C33.0424 21.6659 33.2882 21.4695 33.4995 21.3197L15.8936 9.25977Z" fill="white"/>
<path d="M8.64855 14.2521L8.6132 14.2441C8.44423 14.272 8.09997 14.5777 7.95255 14.6866L25.4456 26.7899L26.1523 26.2884L8.64855 14.2521Z" fill="white"/>
<path d="M7.32426 15.2033L7.23413 15.1846L6.54938 15.6651L24.0204 27.6702C24.0504 27.6936 24.068 27.7001 24.1035 27.712L24.7422 27.2442L7.32426 15.2033Z" fill="white"/>
<path d="M13.1587 11.1328C13.0345 11.1932 12.9126 11.2903 12.7979 11.3684L12.028 11.9004L10.2288 13.1314L9.31219 13.7606L26.8281 25.8728L30.7939 23.1486L13.1587 11.1328Z" fill="white"/>
<path d="M19.4586 6.88728L19.3945 6.87549L16.5798 8.78845C16.7206 8.96124 17.0525 9.13409 17.2432 9.26769L19.6122 10.9016L28.4329 16.9378L32.1873 19.5028L33.8216 20.6101C34.0112 20.7406 34.3557 20.9263 34.4749 21.1165C34.5292 21.2032 34.5369 21.2937 34.5099 21.3907C34.4795 21.4996 34.4141 21.5758 34.3234 21.6424L31.6644 23.4459L26.9308 26.6794L25.059 27.9325C24.7443 28.1456 24.4332 28.4026 24.093 28.5726L24.0587 28.5895C24.1129 28.7905 24.3433 29.8239 24.442 29.9106C24.5953 30.0452 24.8003 30.159 24.9703 30.2766L26.2388 31.1414L29.9498 33.6594L35.6911 37.588L36.7433 38.3058C36.8247 38.3604 36.9598 38.4781 37.0459 38.5074C37.0891 38.5221 37.2012 38.5084 37.25 38.5087L37.7594 38.5121C37.9237 38.5152 38.2 38.5588 38.352 38.5234C38.4644 38.4974 38.6567 38.3245 38.7592 38.2527L39.9122 37.4526L47.1048 32.5327L51.0812 29.8075L51.0884 28.4204L19.4586 6.88728Z" fill="white"/>
<path d="M38.4561 23.4087C36.3102 23.2467 33.9733 23.8755 32.3276 25.2521C31.2252 26.1742 30.4324 27.4504 30.3291 28.8878C30.2329 30.2274 30.7164 31.4442 31.6 32.4531C33.0226 34.0774 35.2264 34.9077 37.3645 35.0627L37.4005 35.0662C37.9225 35.1126 38.4609 35.0856 38.9809 35.0305C40.6001 34.8587 42.2747 34.2815 43.5372 33.249C44.6062 32.3747 45.4387 31.1823 45.5532 29.7876C45.6676 28.3946 45.1466 27.0579 44.223 26.0095C42.7745 24.3653 40.6258 23.5597 38.4561 23.4087Z" fill="#17161E"/>
<path d="M38.454 25.1474C37.6994 25.1031 37.0147 25.1793 36.2727 25.3135C36.5548 25.8269 36.7838 26.3706 37.0396 26.8975C37.1043 27.0307 37.1828 27.2797 37.2889 27.3709L37.3923 27.3528C37.7827 27.2826 38.1194 27.3383 38.5053 27.3449L39.6597 25.3491L38.454 25.1474Z" fill="white"/>
<path d="M38.5521 31.3276C38.1647 31.3932 37.8038 31.3939 37.4167 31.3338L36.2389 33.5245L37.2132 33.6659C38.0068 33.7827 38.8132 33.6808 39.5908 33.5166L38.5521 31.3276Z" fill="white"/>
<path d="M40.547 25.6395L40.4466 25.625C40.2733 25.8381 40.136 26.0969 39.9946 26.3318L39.2433 27.5984C39.6252 27.7967 39.8792 28.0076 40.1706 28.3177L41.2271 27.9376L42.9062 27.3162C42.7653 27.1577 42.6331 26.9894 42.4797 26.8422C41.9304 26.3146 41.2662 25.9023 40.547 25.6395Z" fill="white"/>
<path d="M32.5727 28.0854L32.503 28.0938C32.1893 28.9717 32.2041 29.9154 32.6162 30.7591L34.3662 30.1095L35.3477 29.7731C35.2838 29.5172 35.2938 29.2264 35.3366 28.9677L35.3448 28.9198L32.5727 28.0854Z" fill="white"/>
<path d="M35.4997 25.5332C34.4376 25.9198 33.5199 26.4479 32.8641 27.3821L34.379 27.8254C34.5402 27.8756 35.6379 28.2554 35.6895 28.239C35.7608 28.2163 35.9628 27.9907 36.0322 27.9327C36.1898 27.8011 36.3544 27.717 36.5425 27.6353L35.4997 25.5332Z" fill="white"/>
<path d="M40.0796 30.4639C39.8595 30.7089 39.5943 30.8861 39.309 31.05C39.3047 31.1565 39.448 31.3959 39.4951 31.5002L40.3253 33.2722L40.8667 33.0492C41.1078 32.9368 41.3349 32.8001 41.5609 32.6612C42.1274 32.3003 42.5887 31.8683 42.998 31.3407L40.0796 30.4639Z" fill="white"/>
<path d="M43.3579 27.9185L40.5517 28.9863C40.5768 29.2825 40.554 29.5461 40.5025 29.8385L41.4378 30.1082L43.3909 30.713L43.4143 30.6786C43.48 30.5633 43.5206 30.392 43.5587 30.2644C43.8037 29.4434 43.642 28.7004 43.3579 27.9185Z" fill="white"/>
<path d="M35.7092 30.4287L32.9465 31.4002C33.373 31.9877 33.8501 32.4179 34.4653 32.8109L35.49 33.3157L36.7061 31.1122C36.3108 30.9429 36.0026 30.7393 35.7092 30.4287Z" fill="white"/>
<path d="M38.1954 28.0274C37.6646 28.0081 37.2321 28.0636 36.7626 28.3226C36.4478 28.4964 36.1596 28.7513 36.073 29.1116C36.0166 29.346 36.0688 29.6337 36.1995 29.835C36.5105 30.3145 37.0614 30.5448 37.6081 30.6521C38.1608 30.7367 38.7721 30.5846 39.2247 30.2632C39.4993 30.0681 39.7436 29.7664 39.793 29.4307C39.8314 29.1694 39.7234 28.9164 39.5601 28.7144C39.2244 28.299 38.7194 28.0908 38.1954 28.0274Z" fill="white"/>
<path d="M38.6043 24.1473C37.7188 24.0716 36.7725 24.1459 35.9025 24.3149C34.2867 24.629 32.6827 25.5536 31.7639 26.917C31.1396 27.8435 30.9409 29.0065 31.1711 30.0864C31.4553 31.4202 32.3876 32.3456 33.5078 33.0683L33.5342 33.0508C33.1956 32.7752 32.8763 32.4963 32.6058 32.1525C31.8586 31.2032 31.3857 30.0109 31.5595 28.7968C31.7482 27.478 32.5241 26.4707 33.5876 25.6812C34.0106 25.3671 34.5052 25.147 34.9999 24.9665C36.2776 24.5005 37.6748 24.3271 39.0265 24.5159L40.067 24.7275C41.5928 25.1465 43.1274 26.0901 43.9131 27.4724C44.4222 28.3681 44.593 29.3939 44.301 30.3885C43.8553 31.9066 42.6112 32.9456 41.25 33.68V33.7104C41.9522 33.4103 42.6078 33.0334 43.1984 32.5519C44.0934 31.8222 44.69 30.8606 44.7956 29.7137C44.9007 28.5704 44.479 27.4518 43.7271 26.5833C42.4405 25.0969 40.5603 24.3061 38.6043 24.1473Z" fill="white"/>
</svg>
