<svg width="60" height="50" viewBox="0 0 60 50" fill="none" xmlns="http://www.w3.org/2000/svg">
<path d="M25.2541 0.0012091C25.2616 0.00081976 25.269 -0.000232421 25.2765 4.64271e-05C25.4557 0.00677562 25.6526 0.166656 25.7992 0.259638L26.379 0.61547L30.2236 2.96992L37.1305 7.19708L41.7557 10.0369L46.033 12.7121L51.2224 15.9236L52.7735 16.8914C53.0758 17.0754 53.4219 17.2423 53.6988 17.4612C53.8626 17.5908 53.9284 17.7229 53.9504 17.9294C54.0003 18.4004 53.9601 18.9171 53.961 19.3936L53.9635 22.4029L53.9703 32.0672L53.976 36.3147C53.978 36.9902 54.0227 37.6918 53.9847 38.3646C53.9799 38.4506 53.9507 38.518 53.8941 38.5826C53.7739 38.7195 53.5774 38.8139 53.4216 38.9061L52.6181 39.3852L47.2904 42.6442L39.0405 47.6398L36.6104 49.098L35.3252 49.8725C35.1429 49.9726 34.9605 49.9879 34.7582 50C34.6199 49.9803 34.497 49.9535 34.3705 49.8917C34.1274 49.773 33.8937 49.6136 33.6624 49.4726L32.5027 48.7651L29.1346 46.6932L20.4226 41.3563L18.5522 40.1892L9.5728 34.7126L7.45395 33.4351C7.06311 33.2044 6.59841 32.983 6.24705 32.699C6.15122 32.6216 6.07169 32.5382 6.03656 32.4172C5.98425 32.2369 6.02758 31.9183 6.02781 31.7236L6.0281 29.7618L6.01529 20.3792L6.00868 14.5553L6.00825 12.7053C6.00833 12.4091 5.98746 12.0954 6.01181 11.8009C6.02128 11.6863 6.06425 11.5624 6.12247 11.4637C6.1815 11.3637 6.26721 11.2784 6.36235 11.2128C6.82456 10.8942 7.3574 10.6293 7.84358 10.3458L10.6208 8.69549L21.4903 2.2073L24.0974 0.640861L24.7802 0.234916C24.9329 0.144658 25.0805 0.0452619 25.2541 0.0012091Z" fill="#17161E"/>
<path d="M52.6518 19.1523C52.6896 19.1558 52.6703 19.1493 52.707 19.1787L52.7315 37.8502L35.3333 48.4522L35.3232 29.4274L52.6518 19.1523Z" fill="#E3FE0F"/>
<path d="M7.2926 13.0198L34.101 29.421L34.1046 48.3078L7.28076 31.8467L7.2926 13.0198Z" fill="#E3FE0F"/>
<path d="M25.2399 1.3999L52.2044 17.9627C52.103 18.0666 51.9231 18.1371 51.7951 18.2124L50.7644 18.817L47.0273 21.0141L34.721 28.3595L7.78662 11.8234C8.00771 11.6544 8.2863 11.5234 8.52734 11.3837L9.54237 10.7747L13.678 8.31009L25.2399 1.3999Z" fill="#E3FE0F"/>
<path d="M34.148 19.7289L34.1568 19.7263C34.4454 19.6963 34.7476 19.7034 35.0372 19.7095C36.1823 19.7337 37.4592 20.0066 38.3592 20.7609C38.7159 21.0599 38.9878 21.4274 39.024 21.9058C39.0443 22.1734 39.0315 22.451 39.0307 22.7195C39.0299 23.0153 39.0502 23.3374 38.9695 23.6244C38.9192 23.8033 38.8189 23.9603 38.6994 24.1003C37.9687 24.9561 36.534 25.2917 35.4694 25.3798C35.0612 25.4245 34.6172 25.4113 34.2078 25.3785C33.1576 25.2943 31.9741 25.0699 31.1305 24.3935C30.8481 24.1671 30.5999 23.8454 30.5703 23.4713C30.5436 23.1347 30.5629 22.7821 30.5634 22.4439C30.5637 22.2186 30.5371 21.9693 30.5841 21.7489C30.6361 21.5051 30.7657 21.2646 30.9237 21.0739C31.6745 20.1666 33.0297 19.8315 34.148 19.7289Z" fill="#17161E"/>
<path d="M34.3168 20.2858C35.4455 20.1865 36.9464 20.3678 37.8601 21.0904C38.0964 21.2773 38.4213 21.6053 38.4515 21.918C38.4817 22.2303 38.395 22.5038 38.1944 22.7435C37.5215 23.5475 36.2576 23.8162 35.2669 23.8974C34.105 23.9444 32.6586 23.7886 31.7122 23.0487C31.439 22.835 31.1479 22.526 31.1182 22.1615C31.098 21.9148 31.2381 21.6106 31.3907 21.4266C32.0654 20.6131 33.3278 20.3861 34.3168 20.2858Z" fill="#E3FE0F"/>
<path d="M24.5816 3.4188C25.9138 3.30212 27.6187 3.54845 28.6881 4.39936C29.0428 4.68157 29.363 5.08054 29.4094 5.54753C29.439 5.84632 29.4283 6.15757 29.4295 6.45831C29.4305 6.71985 29.4491 7.02032 29.3814 7.27486C29.3279 7.47611 29.2136 7.66699 29.0812 7.82656C28.3154 8.74965 26.9621 9.0364 25.828 9.13999C24.4138 9.20013 22.8373 9.04492 21.6884 8.1234C21.3425 7.84598 20.9939 7.44522 20.9467 6.98565C20.9239 6.76262 20.933 6.53039 20.9302 6.306C20.923 5.72099 20.9138 5.23501 21.3207 4.7626C22.124 3.83014 23.4095 3.51783 24.5816 3.4188Z" fill="#17161E"/>
<path d="M24.8719 3.94519L24.8993 3.94209C26.0152 3.86469 27.4959 4.15417 28.3652 4.88886C28.608 5.09399 28.841 5.38373 28.8643 5.7133C28.8841 5.99352 28.7484 6.26542 28.5678 6.47229C27.8054 7.3454 26.557 7.55428 25.4636 7.63814C24.3431 7.66598 23.0429 7.49188 22.1261 6.79192C21.8448 6.5771 21.5078 6.2308 21.4731 5.86135C21.4476 5.58913 21.5957 5.31976 21.7659 5.11946C22.5103 4.24335 23.7925 4.02895 24.8719 3.94519Z" fill="#E3FE0F"/>
<path d="M34.1071 9.31115L34.1449 9.30599C35.4713 9.19619 37.0669 9.44268 38.1235 10.3069C38.4872 10.6044 38.8337 11.0132 38.8736 11.5031C38.898 11.8015 38.8785 12.1159 38.8759 12.4158C38.8741 12.6173 38.896 12.8486 38.8471 13.0442C38.7835 13.2987 38.6347 13.5554 38.4618 13.7506C37.6347 14.6846 36.2564 14.977 35.0661 15.0404C33.8381 15.1307 32.3912 14.8996 31.3387 14.2295C30.9386 13.9748 30.4787 13.5495 30.3795 13.0588L30.3728 13.0228L30.3469 12.8588C30.3286 12.6469 30.3373 12.4272 30.3356 12.2142C30.3313 11.6415 30.3388 11.1933 30.7276 10.7342C31.5459 9.76819 32.9012 9.42474 34.1071 9.31115Z" fill="#17161E"/>
<path d="M34.368 9.86428L34.3758 9.86344C35.5237 9.7982 36.916 10.0086 37.813 10.7812C38.0598 10.9938 38.2955 11.2732 38.3149 11.6128C38.3327 11.9247 38.1545 12.2222 37.9472 12.4443C37.1906 13.2544 35.9225 13.506 34.8655 13.5437C33.7177 13.5561 32.3434 13.3579 31.4312 12.5986C31.1862 12.3946 30.9319 12.0781 30.908 11.7481C30.8887 11.4807 31.028 11.226 31.1999 11.032C31.9628 10.1708 33.2795 9.93363 34.368 9.86428Z" fill="#E3FE0F"/>
<path d="M25.1067 14.205L25.1289 14.2026C26.4742 14.0945 28.0794 14.4381 29.1222 15.3301C29.467 15.6249 29.7399 16.0146 29.7687 16.4822C29.7833 16.7199 29.7696 16.9672 29.7698 17.2056C29.7699 17.4613 29.7927 17.7559 29.7441 18.0075C29.7008 18.2321 29.5369 18.4911 29.3864 18.6577C28.5719 19.5593 27.1213 19.8758 25.9589 19.9327C24.6319 20.0065 22.9097 19.7901 21.8494 18.9194C21.5322 18.659 21.2572 18.3196 21.2215 17.8946C21.2015 17.6567 21.217 17.405 21.2198 17.1659C21.2265 16.5742 21.2021 16.1006 21.6115 15.626C22.4625 14.6395 23.8603 14.2882 25.1067 14.205Z" fill="#17161E"/>
<path d="M24.9213 14.7829L24.9263 14.7815C26.1108 14.6736 27.5943 14.9018 28.5687 15.6208C28.849 15.8275 29.1668 16.1495 29.2159 16.5094C29.2562 16.8048 29.1253 17.058 28.9472 17.2813C28.2936 18.1012 27.0847 18.3628 26.101 18.4711C24.9293 18.5924 23.4249 18.373 22.4604 17.6651C22.1438 17.4327 21.8694 17.1204 21.8186 16.7173C21.7838 16.4408 21.9016 16.1681 22.073 15.9564C22.7122 15.1665 23.9646 14.8765 24.9213 14.7829Z" fill="#E3FE0F"/>
<path d="M16.2005 8.47095C17.543 8.49862 19.0421 8.7399 20.0543 9.70788C20.3318 9.97326 20.5452 10.335 20.5521 10.728L20.5461 11.5624C20.5422 12.1535 20.547 12.6026 20.11 13.0496C19.1984 13.9821 17.6326 14.2344 16.3898 14.2484C15.0823 14.2547 13.5525 14.0088 12.5553 13.0905C12.2593 12.8179 12.0354 12.5209 12.0216 12.1022L12.013 11.2656C12.0104 10.6758 12.014 10.24 12.439 9.78032C13.3846 8.75753 14.882 8.52866 16.2005 8.47095Z" fill="#17161E"/>
<path d="M15.8698 9.04839C16.9541 8.95053 18.3686 9.17876 19.2745 9.80828C19.5679 10.0121 19.9479 10.3726 19.9973 10.7475C20.0299 10.9953 19.883 11.2989 19.7247 11.4833C19.0471 12.2728 17.74 12.4967 16.76 12.5628C15.738 12.6234 14.6049 12.5128 13.6733 12.0624C13.4688 11.9635 13.2564 11.8561 13.0793 11.7119C12.8203 11.5009 12.5941 11.2031 12.5701 10.8588C12.5531 10.6159 12.7161 10.3365 12.867 10.1594C13.5541 9.35307 14.8731 9.12131 15.8698 9.04839Z" fill="#E3FE0F"/>
<path d="M43.327 14.6519C44.679 14.5442 46.2319 14.8233 47.3143 15.6811C47.6454 15.9435 47.9446 16.3357 47.9889 16.7701C48.0216 17.0889 47.9965 17.4337 47.9958 17.7555C47.9952 17.9881 48.0271 18.2799 47.9683 18.5052C47.9104 18.7275 47.7892 18.9411 47.6392 19.1139C46.7915 20.0902 45.349 20.3622 44.1252 20.4519C42.7368 20.4627 41.0991 20.2986 40.0012 19.3489C39.7139 19.1004 39.4206 18.7255 39.3984 18.3316C39.3836 18.0692 39.3932 17.8003 39.3934 17.5373C39.3938 16.9123 39.3823 16.4537 39.8227 15.9538C40.681 14.9797 42.0987 14.7274 43.327 14.6519Z" fill="#17161E"/>
<path d="M43.2944 15.2043L43.3169 15.2018C43.6413 15.1729 43.9862 15.1932 44.3101 15.2209C45.1895 15.2958 46.2085 15.5093 46.9033 16.0918C47.1751 16.3196 47.394 16.6075 47.4189 16.9747C47.4394 17.2774 47.3028 17.5443 47.1084 17.7674C46.4286 18.5479 45.136 18.7903 44.163 18.8557C43.4631 18.9213 42.7221 18.8327 42.0431 18.6636C41.5796 18.5483 41.1142 18.3903 40.7159 18.1192C40.4352 17.9281 40.019 17.5188 39.9733 17.1651C39.9336 16.858 40.0448 16.5886 40.2417 16.3558C40.9593 15.5072 42.2507 15.2787 43.2944 15.2043Z" fill="#E3FE0F"/>
</svg>
