<svg width="60" height="51" viewBox="0 0 60 51" fill="none" xmlns="http://www.w3.org/2000/svg">
<g clip-path="url(#clip0_0_304)">
<path d="M32.7784 0.656199C32.8935 0.635785 33.0278 0.642242 33.1454 0.641583C33.63 0.638868 34.1256 0.733966 34.5697 0.932521C34.8145 1.04197 35.0385 1.21176 35.2654 1.35433L36.5839 2.18568L38.1255 3.15137L38.9904 3.68357C39.1681 3.80548 39.3365 3.94716 39.4881 4.10087C39.9546 4.57404 40.2901 5.20872 40.4315 5.85989C40.5391 6.35572 40.5281 6.86161 40.5262 7.36578L40.5123 9.04774L40.5015 12.7491L40.5016 14.8686C40.5038 14.9533 40.5519 14.9568 40.617 14.9933L42.3964 16.0566L46.3256 18.3986L48.4217 19.6568C48.6 19.7726 48.8125 19.8834 48.9643 20.0324C48.9871 20.0808 48.9977 20.1121 48.9996 20.1667L49 21.8799L48.9808 25.9261L48.9644 37.0345C48.5455 37.3911 48.0488 37.6824 47.5794 37.9643L46.1841 38.8058L42.159 41.246L33.4311 46.5256L27.0363 50.3801L26.6265 50.6411L11.308 41.4784C11.1995 41.4036 11.0357 41.2655 11.0175 41.1261C10.9998 40.9903 11.0104 40.8362 11.0103 40.6984L11.0112 39.9045L11.0096 37.3009L11.0097 28.0827L11.002 25.3827L11.0016 24.7703C11.0018 24.7053 10.9925 24.5599 11.0165 24.5016C11.0413 24.4414 11.15 24.3674 11.2023 24.3319L13.5278 22.8946L17.9068 20.1636L19.1438 19.3932C19.186 19.3664 19.3948 19.2557 19.413 19.222C19.4241 19.2014 19.4137 19.0462 19.4138 19.0146L19.4166 18.2327L19.417 14.6089C19.4167 13.9268 19.3831 13.224 19.4369 12.545C19.5785 10.7589 20.3224 9.11452 21.4047 7.71547C21.8132 7.1873 22.3195 6.69098 22.8536 6.29301C23.4011 5.88512 24.015 5.56207 24.5987 5.20988L27.4988 3.44536L30.2359 1.78485C30.6713 1.52002 31.1087 1.19888 31.5652 0.979715C31.9495 0.795196 32.359 0.708635 32.7784 0.656199Z" fill="#17161E"/>
<path d="M39.964 17.5835C39.992 17.5888 39.9762 17.5832 40.0081 17.6073L40.0108 19.2319L38.026 20.4761L37.9704 20.4568L37.9678 18.8382L39.964 17.5835Z" fill="white"/>
<path d="M26.105 25.8477L26.1181 27.6618L23.7212 29.1534C23.6866 29.1495 23.7048 29.1556 23.6695 29.1281L23.6665 27.3968L26.105 25.8477Z" fill="white"/>
<path d="M34.2925 17.1699L37.1505 18.8983L37.1442 20.4757L34.2903 18.8021L34.2925 17.1699Z" fill="white"/>
<path d="M19.9893 25.4346L22.8466 27.3836L22.8495 29.1536L19.9932 27.2629L19.9893 25.4346Z" fill="white"/>
<path d="M19.5389 20.0625C19.5541 20.0679 19.5671 20.078 19.5807 20.0868L19.5717 22.6626L14.3359 25.8476C14.2347 25.8476 13.227 25.2116 13.0654 25.1133L12.2258 24.5949C12.4804 24.3913 12.7906 24.2298 13.0691 24.0602L14.6143 23.1155L19.5389 20.0625Z" fill="white"/>
<path d="M33.8263 12.6245C33.8619 12.628 33.8433 12.6223 33.8794 12.6483L33.8817 14.9259L26.585 19.2361L26.529 19.2229L26.5269 16.9167L33.8263 12.6245Z" fill="white"/>
<path d="M33.8372 8.49219L33.8785 8.50525L33.8817 11.5823L26.5639 15.9302L26.5269 15.9063C26.5284 15.326 26.5294 14.7698 26.6866 14.2053C26.931 13.3278 27.4421 12.5156 28.1207 11.8921C28.3824 11.6517 28.7007 11.4738 29.0094 11.2973L29.9925 10.7286L33.8372 8.49219Z" fill="white"/>
<path d="M36.4665 6.8502L36.5722 6.83978C36.7081 6.83523 36.7847 6.8667 36.882 6.96163C37.0106 7.08715 37.1029 7.27458 37.1246 7.45099C37.1689 7.80979 37.1428 8.19795 37.1436 8.56032L37.1467 10.6075L37.1483 17.9964L35.7426 17.1795L34.3137 16.3432C34.2716 16.1855 34.2993 15.9443 34.2983 15.7778L34.3013 14.2193L34.3011 8.1058L35.4629 7.41174C35.7881 7.2159 36.1141 6.99496 36.4665 6.8502Z" fill="white"/>
<path d="M11.8268 25.4346L13.8545 26.6795L13.8601 39.385C13.8052 39.4541 13.7096 39.5038 13.6371 39.5525L13.1144 39.8928L11.8171 40.7238L11.8268 25.4346Z" fill="white"/>
<path d="M48.1693 20.8892C48.1937 21.0295 48.1781 21.2024 48.1766 21.3462L48.168 22.1899L48.1641 25.0212L48.1503 36.1784C48.0632 36.1799 47.062 35.545 46.8987 35.4466C46.6431 35.3319 46.3782 35.1361 46.1399 34.9842L46.1438 22.1131L48.1693 20.8892Z" fill="white"/>
<path d="M14.1449 39.9101C14.167 39.906 14.1889 39.8953 14.2112 39.8978C14.2246 39.8993 14.279 39.9397 14.2912 39.9473L14.6215 40.1524L16.4943 41.3254L23.0212 45.392L26.1183 47.3395L26.1137 49.8148L24.9202 49.0717L12.2258 41.1556L14.1449 39.9101Z" fill="white"/>
<path d="M46.0705 35.7651C46.2929 35.8621 46.5105 36.018 46.7187 36.1441C47.2029 36.4371 47.679 36.7382 48.1829 36.9965L28.2848 49.0102L26.9355 49.8147L26.94 47.4264L46.0705 35.7651Z" fill="white"/>
<path d="M33.6439 15.9302C33.666 15.937 33.6508 15.9313 33.6864 15.9546C33.6886 16.1453 33.7145 16.3435 33.6153 16.5126C33.5837 16.5663 33.5547 16.6099 33.548 16.6735C33.5103 17.0301 33.5459 17.4332 33.5448 17.7939L33.5431 18.6363C33.5432 18.7606 33.5289 18.9066 33.551 19.0286C33.5644 19.1028 33.5957 19.1447 33.651 19.1922C33.9427 19.4429 34.3624 19.6281 34.6936 19.8256L36.7419 21.0821L28.7617 26.0089L26.9774 27.0872L26.9504 25.2296C26.823 25.0967 26.6797 25.0034 26.5269 24.9037L26.5315 20.3496C26.5351 20.3351 26.5402 20.32 26.5501 20.309C26.6153 20.236 26.7956 20.1549 26.8827 20.1003L28.1985 19.2875L33.6439 15.9302Z" fill="white"/>
<path d="M36.9817 3.95576C37.0678 3.94155 37.1683 3.94858 37.2557 3.94808C37.9166 3.94425 38.5857 4.20849 39.0533 4.67697C39.5363 5.16079 39.8216 5.84041 39.9428 6.50731C40.0376 7.02899 40.0062 7.55966 40.0037 8.08766L39.9945 10.0364L39.987 16.6068L38.0807 17.8224L38.0714 15.3828L38.0703 10.5722L38.0722 8.82949C38.0733 8.23916 38.1648 7.54164 37.9514 6.98371C37.8204 6.64117 37.6218 6.37336 37.2786 6.22298C36.9581 6.08252 36.6183 6.11249 36.3001 6.24169C36.0208 6.35514 35.7647 6.54575 35.5075 6.70268L34.2246 7.47391L30.4334 9.75974L29.0385 10.5992C28.6033 10.8613 28.1637 11.096 27.7821 11.4378C27.0837 12.0634 26.5916 12.8428 26.2411 13.7057C26.1016 14.1111 25.9882 14.5118 25.9435 14.9396C25.8934 15.4176 25.907 15.9017 25.9066 16.3817L25.9071 18.4067L25.9244 25.1239L24.1015 26.2608L24.091 26.2147C24.055 25.987 24.0917 25.6828 24.0924 25.4467L24.0935 23.5522L24.0963 17.9161L24.0923 16.1968C24.0896 15.5018 24.0897 14.8356 24.2293 14.15C24.4677 12.9784 25.011 11.8992 25.7457 10.9615C26.1382 10.4607 26.6406 9.94209 27.153 9.56447C27.5842 9.24666 28.0893 8.99357 28.5501 8.71735L31.2468 7.08701L34.2023 5.29501L35.2398 4.66727C35.4745 4.52473 35.7061 4.3702 35.9517 4.24725C36.2863 4.07961 36.6127 4.00115 36.9817 3.95576Z" fill="white"/>
<path d="M33.1036 1.4678C33.4327 1.46654 33.7819 1.51256 34.091 1.62997C34.4415 1.7631 34.7713 2.00584 35.0907 2.2025L36.7419 3.21273C36.3063 3.29132 35.8979 3.38038 35.4948 3.57106C35.1403 3.73871 34.803 3.98214 34.4646 4.18305L32.0542 5.63201L28.6674 7.68203L27.511 8.37496C27.1452 8.58925 26.7766 8.79308 26.4362 9.04781C26.1281 9.2785 25.8401 9.55375 25.567 9.82449C24.4918 10.8905 23.669 12.32 23.3092 13.7884C23.0627 14.7948 23.091 15.7763 23.092 16.802L23.094 19.2286L23.09 26.1463L23.0925 26.6744L19.9897 24.8188L19.9916 17.4387L19.9912 14.6647C19.9912 13.6309 19.9555 12.6149 20.1925 11.6001C20.4991 10.2878 21.1885 9.03525 22.0783 8.02553C22.4345 7.62136 22.8407 7.23903 23.2837 6.93068C23.8146 6.56107 24.4033 6.24271 24.961 5.91228L27.9763 4.11675L30.8927 2.36535C31.2432 2.15702 31.5788 1.89205 31.9485 1.72361C32.3182 1.55519 32.7013 1.49389 33.1036 1.4678Z" fill="white"/>
<path d="M40.5817 15.9302L48.1826 20.367L26.4965 33.2855L19.5328 29.2006L14.6772 26.3712L19.2737 23.6242L19.2753 24.5016C19.2019 24.5608 19.1362 24.6176 19.1035 24.7082C19.0408 24.8821 19.082 25.1895 19.0819 25.3774L19.0799 26.9906C19.0798 27.135 19.0406 27.4501 19.1105 27.5738C19.1407 27.6273 19.1868 27.6669 19.2372 27.7011C19.4301 27.8321 19.6563 27.9351 19.8584 28.0558L22.4475 29.5808C22.6898 29.72 23.0086 29.9668 23.2759 30.0299C23.5012 29.9415 23.7012 29.8033 23.9051 29.6758L24.5818 29.2675L28.2815 27.0276L37.4643 21.5673L39.7153 20.2199C40.0066 20.0449 40.3945 19.8691 40.6447 19.6443C40.7498 19.5499 40.7675 19.4604 40.7701 19.324L40.7738 17.5868C40.7738 17.3197 40.8112 16.9823 40.7566 16.724C40.7337 16.616 40.6783 16.5495 40.6015 16.4724L40.5798 16.4511L40.5817 15.9302Z" fill="white"/>
<path d="M26.6937 30.3937C26.8279 30.3889 26.9602 30.4131 27.0813 30.4697C27.1778 30.5149 27.3013 30.6098 27.3321 30.7136C27.3558 30.7932 27.3448 30.8893 27.2983 30.9599C27.1865 31.1298 26.9781 31.1852 26.7868 31.2194C26.5979 31.2215 26.3994 31.188 26.2494 31.0677C26.1756 31.0085 26.1289 30.9302 26.12 30.8374C26.1112 30.7447 26.1394 30.6617 26.202 30.591C26.3267 30.45 26.5137 30.4132 26.6937 30.3937Z" fill="#17161E"/>
<path d="M43.4595 19.6629C43.6925 19.6351 43.9159 19.6444 44.1333 19.7479C44.2719 19.8139 44.4273 19.9232 44.4788 20.0884C44.5206 20.2222 44.5147 20.3566 44.4511 20.4807C44.3401 20.6973 44.1471 20.7957 43.9431 20.8681C43.7078 20.9137 43.4543 20.8868 43.2386 20.7697C43.0986 20.6937 42.9405 20.5578 42.8934 20.3861C42.8626 20.2739 42.8588 20.1588 42.9137 20.0558C43.0307 19.8367 43.2472 19.7283 43.4595 19.6629Z" fill="#17161E"/>
<path d="M14.2688 27.0874L26.1183 34.187L26.1004 46.4716L26.0554 46.5089L14.2904 39.4786L14.2688 27.0874Z" fill="white"/>
<path d="M45.6736 22.542L45.7146 22.5452C45.7385 22.6456 45.7281 22.7566 45.7283 22.8599L45.7288 23.4655L45.7303 25.6451L45.7312 35.0981L27.0003 46.5089L26.9391 46.4954L26.9355 34.0362C27.0235 33.9398 27.1896 33.8623 27.3029 33.7913L28.0937 33.2956L30.8264 31.6081L39.5904 26.2226L45.6736 22.542Z" fill="white"/>
<path d="M37.3295 28.7538L37.6973 28.7402C38.2082 28.7553 38.6831 28.9965 39.0309 29.3956C39.8961 30.3882 39.6225 32.0152 39.2263 33.1617C39.0889 33.5594 38.8557 33.9725 38.7736 34.3844C38.7161 34.6727 38.7447 35.0361 38.7429 35.3332L38.7285 37.4113L34.9842 39.886C34.7969 40.0188 34.5409 40.2434 34.3258 40.302C34.2364 40.3263 34.1441 40.2963 34.0708 40.24C33.9971 40.1834 33.9461 40.1042 33.9255 40.0093C33.8812 39.8052 33.9119 39.5384 33.9119 39.3267L33.9135 37.5284C33.9132 37.2504 33.9395 36.9355 33.899 36.6611C33.8739 36.4907 33.5532 36.2226 33.4537 36.0599C33.261 35.7446 33.1549 35.3847 33.1014 35.0148C32.9021 33.6373 33.5385 31.995 34.2959 30.9076C35.053 29.8206 36.0428 28.9546 37.3295 28.7538Z" fill="#17161E"/>
<path d="M37.5239 29.5781L37.8048 29.5669C38.1465 29.5675 38.4651 29.7132 38.7037 29.9486C39.5125 30.7463 39.1565 32.2087 38.7945 33.136C38.633 33.5498 38.3837 33.9784 38.307 34.417C38.248 34.754 38.2724 35.1166 38.2705 35.458L38.2627 37.1439L34.8972 39.1839L34.4018 39.4843L34.4029 37.7093C34.4024 37.4019 34.4341 37.0533 34.3863 36.7506C34.3682 36.636 34.3284 36.5164 34.2753 36.4121C34.1504 36.167 33.942 35.9869 33.7813 35.767C33.6473 35.5838 33.5553 35.3379 33.5167 35.1162C33.3045 33.8988 33.9004 32.5104 34.6072 31.5352C35.3076 30.5685 36.3045 29.7868 37.5239 29.5781Z" fill="white"/>
</g>
<defs>
<clipPath id="clip0_0_304">
<rect width="60" height="50" fill="white" transform="translate(0 0.641113)"/>
</clipPath>
</defs>
</svg>
