<svg width="60" height="50" viewBox="0 0 60 50" fill="none" xmlns="http://www.w3.org/2000/svg">
<path d="M20.1189 31.7133C20.1189 37.2774 15.6151 41.7879 10.0594 41.7879C4.50377 41.7879 0 37.2774 0 31.7133C0 26.1492 4.50377 21.6387 10.0594 21.6387C15.6151 21.6387 20.1189 26.1492 20.1189 31.7133Z" fill="#E3FE0F" fill-opacity="0.3"/>
<path d="M18.3436 31.7133C18.3436 36.2954 14.6347 40.01 10.0594 40.01C5.48413 40.01 1.77515 36.2954 1.77515 31.7133C1.77515 27.1311 5.48413 23.4165 10.0594 23.4165C14.6347 23.4165 18.3436 27.1311 18.3436 31.7133Z" fill="#E3FE0F" fill-opacity="0.5"/>
<path d="M16.5684 31.7132C16.5684 35.3135 13.6542 38.2321 10.0593 38.2321C6.46449 38.2321 3.55029 35.3135 3.55029 31.7132C3.55029 28.1129 6.46449 25.1943 10.0593 25.1943C13.6542 25.1943 16.5684 28.1129 16.5684 31.7132Z" fill="#17161E"/>
<path d="M47.3326 45.8955C47.3326 48.1623 45.4977 50 43.2343 50C40.9709 50 39.136 48.1623 39.136 45.8955C39.136 43.6287 40.9709 41.791 43.2343 41.791C45.4977 41.791 47.3326 43.6287 47.3326 45.8955Z" fill="#E3FE0F" fill-opacity="0.3"/>
<path d="M46.6093 45.8955C46.6093 47.7623 45.0982 49.2757 43.2342 49.2757C41.3702 49.2757 39.8591 47.7623 39.8591 45.8955C39.8591 44.0287 41.3702 42.5154 43.2342 42.5154C45.0982 42.5154 46.6093 44.0287 46.6093 45.8955Z" fill="#E3FE0F" fill-opacity="0.5"/>
<path d="M45.8859 45.8956C45.8859 47.3624 44.6987 48.5514 43.2341 48.5514C41.7695 48.5514 40.5823 47.3624 40.5823 45.8956C40.5823 44.4288 41.7695 43.2397 43.2341 43.2397C44.6987 43.2397 45.8859 44.4288 45.8859 45.8956Z" fill="#17161E"/>
<path d="M59.9999 13.0597C59.9999 16.1508 57.4978 18.6567 54.4113 18.6567C51.3248 18.6567 48.8228 16.1508 48.8228 13.0597C48.8228 9.96852 51.3248 7.46265 54.4113 7.46265C57.4978 7.46265 59.9999 9.96852 59.9999 13.0597Z" fill="#E3FE0F" fill-opacity="0.3"/>
<path d="M59.0136 13.0595C59.0136 15.6052 56.953 17.6688 54.4112 17.6688C51.8694 17.6688 49.8088 15.6052 49.8088 13.0595C49.8088 10.5139 51.8694 8.4502 54.4112 8.4502C56.953 8.4502 59.0136 10.5139 59.0136 13.0595Z" fill="#E3FE0F" fill-opacity="0.5"/>
<path d="M58.0277 13.0596C58.0277 15.0597 56.4087 16.6812 54.4115 16.6812C52.4144 16.6812 50.7954 15.0597 50.7954 13.0596C50.7954 11.0594 52.4144 9.43799 54.4115 9.43799C56.4087 9.43799 58.0277 11.0594 58.0277 13.0596Z" fill="#17161E"/>
<path d="M39.7474 19.9037C39.7474 22.5827 37.5789 24.7545 34.904 24.7545C32.229 24.7545 30.0605 22.5827 30.0605 19.9037C30.0605 17.2247 32.229 15.053 34.904 15.053C37.5789 15.053 39.7474 17.2247 39.7474 19.9037Z" fill="#E3FE0F" fill-opacity="0.3"/>
<path d="M38.8925 19.9037C38.8925 22.1099 37.1067 23.8984 34.9038 23.8984C32.7008 23.8984 30.915 22.1099 30.915 19.9037C30.915 17.6974 32.7008 15.9089 34.9038 15.9089C37.1067 15.9089 38.8925 17.6974 38.8925 19.9037Z" fill="#E3FE0F" fill-opacity="0.5"/>
<path d="M38.0378 19.9039C38.0378 21.6373 36.6346 23.0426 34.9038 23.0426C33.1729 23.0426 31.7698 21.6373 31.7698 19.9039C31.7698 18.1704 33.1729 16.7651 34.9038 16.7651C36.6346 16.7651 38.0378 18.1704 38.0378 19.9039Z" fill="#17161E"/>
<path d="M25.7222 3.73075C25.7222 5.79119 24.0544 7.4615 21.9971 7.4615C19.9398 7.4615 18.272 5.79119 18.272 3.73075C18.272 1.67031 19.9398 0 21.9971 0C24.0544 0 25.7222 1.67031 25.7222 3.73075Z" fill="#E3FE0F" fill-opacity="0.3"/>
<path d="M25.0649 3.73059C25.0649 5.42742 23.6915 6.80297 21.9972 6.80297C20.3029 6.80297 18.9294 5.42742 18.9294 3.73059C18.9294 2.03376 20.3029 0.658203 21.9972 0.658203C23.6915 0.658203 25.0649 2.03376 25.0649 3.73059Z" fill="#E3FE0F" fill-opacity="0.5"/>
<path d="M24.4077 3.73091C24.4077 5.06413 23.3285 6.14493 21.9973 6.14493C20.6661 6.14493 19.5869 5.06413 19.5869 3.73091C19.5869 2.39769 20.6661 1.31689 21.9973 1.31689C23.3285 1.31689 24.4077 2.39769 24.4077 3.73091Z" fill="#17161E"/>
</svg>
