<svg width="60" height="56" viewBox="0 0 60 56" fill="none" xmlns="http://www.w3.org/2000/svg">
<path d="M32.4 0.705078C32.7466 0.960561 33.1663 1.15225 33.5385 1.37058L36.3916 3.02462L48.5765 10.1171L52.9579 12.6999L54.4437 13.5843C54.7253 13.7509 55.031 13.9059 55.2984 14.0934C55.3569 14.1343 55.4065 14.1841 55.4372 14.2496C55.469 14.3173 55.4775 14.3837 55.4793 14.458L55.4904 17.6444L55.4841 25.8659L55.4974 38.25L55.4971 40.7744L55.4973 41.4012C55.4977 41.5154 55.5121 41.6628 55.4701 41.7708C55.4109 41.9227 55.2974 42.0235 55.1604 42.1024L49.5014 45.1741L37.9322 51.406L31.8348 54.6792L30.63 55.3262C30.3985 55.4533 30.1604 55.604 29.9175 55.7051L27.8525 54.4909L20.8124 50.3531L11.234 44.7853L5.94635 41.7022L4.42876 40.8266C4.22544 40.7103 4.01012 40.6091 3.81263 40.4833C3.72082 40.4248 3.63427 40.3459 3.58149 40.2491C3.44889 40.0059 3.51793 39.1669 3.51823 38.8644L3.5185 38.6293L3.51755 34.7451L3.51581 33.9489C3.51563 33.8763 3.49575 33.7457 3.51509 33.6826C3.55556 33.5506 3.69507 33.402 3.78267 33.2955L4.28293 32.6921L5.82807 30.8254L8.06354 28.1098L8.71575 27.3332C8.78905 27.2499 8.98948 27.0759 9.02779 26.9819C9.05696 26.9103 9.02773 26.6584 9.02767 26.5721L9.02739 24.9887L9.02836 15.809L9.03304 14.2247C9.03435 13.9942 8.99976 13.6687 9.06741 13.4489C9.09795 13.3497 9.1854 13.2751 9.27041 13.2237L11.8556 11.808L17.6311 8.69025L25.8026 4.27545L32.4 0.705078Z" fill="#17161E"/>
<path d="M32.3537 1.66895L54.2897 14.4608L52.8063 15.254C52.5304 15.144 52.273 14.9615 52.0194 14.8073L50.7592 14.0542L44.8505 10.5866L35.8382 5.33301L32.5902 3.46117L30.8855 2.45705L32.3537 1.66895Z" fill="white"/>
<path d="M4.36743 34.5603L29.5818 49.3243L29.5836 54.5432L4.37053 39.7918L4.36743 34.5603Z" fill="white"/>
<path d="M13.5073 11.8628C13.5362 11.8577 13.5651 11.8427 13.594 11.8477C13.6218 11.8524 13.6966 11.9055 13.7242 11.9212L14.162 12.1764L16.705 13.6901L28.9506 20.8329L34.4395 24.0443L34.4341 41.5354L10.6671 27.5646L9.85352 27.0857L9.86311 25.4003C9.95633 25.4217 10.0457 25.4875 10.1282 25.5351L10.6501 25.8374L13.7238 27.6532L20.1631 31.4438L28.4223 36.2398L31.2122 37.9212C31.2632 37.951 31.3125 37.9695 31.3721 37.9627C31.4946 37.9486 31.6247 37.871 31.6965 37.7698C31.7278 37.7258 31.7456 37.6778 31.7551 37.6249C31.8141 37.296 31.764 36.877 31.7614 36.5377L31.7526 34.1993L31.7636 28.6215L31.7719 27.0638C31.7729 26.8362 31.8052 26.5483 31.7588 26.3269C31.7344 26.2111 31.6622 26.114 31.566 26.0485C31.355 25.9049 31.1093 25.7931 30.8858 25.6692L29.7164 25.0071L26.8159 23.3143L15.9703 16.9322L12.4675 14.8575L10.3263 13.5717L13.5073 11.8628Z" fill="white"/>
<path d="M9.87134 14.2998L30.9233 26.6736L30.915 36.7469L9.85645 24.3718L9.87134 14.2998Z" fill="white"/>
<path d="M9.39764 27.8247L34.5359 42.5875L29.8273 48.4422L29.7441 48.4354L4.54907 33.7L9.39764 27.8247Z" fill="white"/>
<path d="M10.5967 31.0842C10.6542 31.0704 10.7103 31.0682 10.7686 31.0771C10.9965 31.1115 11.3108 31.3579 11.5105 31.4771L13.0276 32.3824L19.6266 36.2527L27.6855 40.9175L30.4917 42.5384C30.5563 42.5777 30.6181 42.6221 30.6582 42.6882C30.7086 42.7713 30.7132 42.967 30.6796 43.0562C30.6008 43.2653 29.5744 44.4682 29.3643 44.5826C29.2942 44.5942 29.2212 44.599 29.1503 44.5904C29.0654 44.5801 28.9847 44.5311 28.9116 44.4888L23.7905 41.4522L16.4485 37.1714L11.6572 34.3664L9.52677 33.1359C9.4533 33.0912 9.38411 33.0344 9.33422 32.9632C9.24145 32.8307 9.26902 32.6854 9.29043 32.5355C9.50034 32.2298 9.77333 31.9496 10.0131 31.6668C10.1615 31.4918 10.3771 31.1578 10.5967 31.0842Z" fill="#17161E"/>
<path d="M17.3814 35.9382L22.4067 38.8529L21.9499 39.3791L16.9287 36.4515L17.3814 35.9382Z" fill="white"/>
<path d="M10.8262 32.1077L16.658 35.5026C16.5239 35.6942 16.3454 35.8671 16.1888 36.041L10.3447 32.6005L10.8262 32.1077Z" fill="white"/>
<path d="M23.1524 39.2583L29.6435 43.0415L29.1737 43.5436L29.121 43.5774C28.9727 43.5535 28.7485 43.3796 28.6147 43.301L27.1894 42.4547L24.8415 41.0697L22.7097 39.8034C22.8282 39.6066 23.0025 39.4321 23.1524 39.2583Z" fill="white"/>
<path d="M54.6097 15.2295L54.6459 15.2336C54.7036 15.3377 54.6757 38.689 54.6685 41.4013L30.477 54.4533L30.4598 54.4421C30.4588 54.4411 30.4246 54.3946 30.4236 54.3916C30.4031 54.3228 30.4186 54.1765 30.4171 54.0996L30.4114 53.2154L30.4266 49.0035L34.4491 44.0186L35.2097 43.0769C35.3033 42.9579 35.39 42.7736 35.5057 42.6849C35.6448 42.5782 35.834 42.4974 35.9898 42.4149L36.9021 41.9302L39.5747 40.4843L49.573 35.1155L51.9258 33.8501L52.6313 33.4675C52.7754 33.389 52.9374 33.3218 53.0568 33.206C53.1401 33.1252 53.2067 33.016 53.2129 32.8971C53.243 32.3293 53.2078 31.7412 53.2077 31.1715L53.2082 27.4746L53.2119 15.9632L54.6097 15.2295Z" fill="white"/>
<path d="M51.3769 15.4599L51.4431 15.4429C51.564 15.4753 51.6773 15.5562 51.7851 15.619L52.3797 15.9797L52.3642 32.6257L35.9274 41.494L35.2601 41.8251L35.2573 23.9989L51.3769 15.4599Z" fill="white"/>
<path d="M50.8038 17.5029C50.8413 17.5064 50.8173 17.503 50.8745 17.5186L50.897 31.651L36.8711 39.1867L36.8299 39.2015L36.7999 39.1702L36.8085 29.297L36.8055 26.2881C36.8044 25.8427 36.7554 25.3451 36.8088 24.9052L50.8038 17.5029Z" fill="#17161E"/>
<path d="M30.0086 2.95117C30.211 3.04063 30.4098 3.17527 30.6034 3.28551L31.8901 4.02305L37.1327 7.05375L46.2074 12.3573L48.5794 13.7455L50.5947 14.9131L34.9788 23.2037L34.7872 23.2955L14.4263 11.3483L30.0086 2.95117Z" fill="white"/>
</svg>
